<mxfile host="app.diagrams.net" modified="2023-07-18T14:25:57.736Z" agent="Mozilla/5.0 (X11; Linux x86_64) AppleWebKit/537.36 (KHTML, like Gecko) Chrome/115.0.0.0 Safari/537.36" etag="qlj8DkNnZpqfOUY9kC0z" version="21.6.2" type="device">
  <diagram name="Page-1" id="AqpaGE_7xWbZEWr-UcfI">
    <mxGraphModel dx="2603" dy="1965" grid="1" gridSize="10" guides="1" tooltips="1" connect="1" arrows="1" fold="1" page="1" pageScale="1" pageWidth="850" pageHeight="1100" math="0" shadow="0">
      <root>
        <mxCell id="0" />
        <mxCell id="1" parent="0" />
        <mxCell id="3pad2oVf0Wh9DPUIv5oC-14" value="" style="rounded=1;whiteSpace=wrap;html=1;fillColor=#d5e8d4;strokeColor=#82b366;" vertex="1" parent="1">
          <mxGeometry x="220" y="240" width="540" height="400" as="geometry" />
        </mxCell>
        <mxCell id="3pad2oVf0Wh9DPUIv5oC-1" value="&lt;b&gt;sequencer&lt;/b&gt;" style="rounded=0;whiteSpace=wrap;html=1;" vertex="1" parent="1">
          <mxGeometry x="250" y="390" width="240" height="110" as="geometry" />
        </mxCell>
        <mxCell id="3pad2oVf0Wh9DPUIv5oC-2" value="" style="shape=cylinder3;whiteSpace=wrap;html=1;boundedLbl=1;backgroundOutline=1;size=15;fillColor=#dae8fc;strokeColor=#6c8ebf;" vertex="1" parent="1">
          <mxGeometry x="570" y="280" width="120" height="100" as="geometry" />
        </mxCell>
        <mxCell id="3pad2oVf0Wh9DPUIv5oC-3" value="" style="shape=cylinder3;whiteSpace=wrap;html=1;boundedLbl=1;backgroundOutline=1;size=15;fillColor=#dae8fc;strokeColor=#6c8ebf;" vertex="1" parent="1">
          <mxGeometry x="570" y="500" width="120" height="100" as="geometry" />
        </mxCell>
        <mxCell id="3pad2oVf0Wh9DPUIv5oC-4" value="" style="shape=flexArrow;endArrow=classic;startArrow=classic;html=1;rounded=0;fillColor=#fff2cc;strokeColor=#d6b656;" edge="1" parent="1">
          <mxGeometry width="100" height="100" relative="1" as="geometry">
            <mxPoint x="110" y="444.5" as="sourcePoint" />
            <mxPoint x="250" y="444.5" as="targetPoint" />
          </mxGeometry>
        </mxCell>
        <mxCell id="3pad2oVf0Wh9DPUIv5oC-6" value="&lt;b&gt;HTTP (REST)&lt;/b&gt;" style="text;html=1;strokeColor=none;fillColor=none;align=center;verticalAlign=middle;whiteSpace=wrap;rounded=0;" vertex="1" parent="1">
          <mxGeometry x="150" y="400" width="60" height="30" as="geometry" />
        </mxCell>
        <mxCell id="3pad2oVf0Wh9DPUIv5oC-8" value="Internet" style="ellipse;shape=cloud;whiteSpace=wrap;html=1;fillColor=#f8cecc;strokeColor=#b85450;" vertex="1" parent="1">
          <mxGeometry x="-10" y="400" width="120" height="80" as="geometry" />
        </mxCell>
        <mxCell id="3pad2oVf0Wh9DPUIv5oC-9" value="" style="endArrow=classic;startArrow=classic;html=1;rounded=0;entryX=0;entryY=0.5;entryDx=0;entryDy=0;entryPerimeter=0;exitX=1;exitY=0.25;exitDx=0;exitDy=0;" edge="1" parent="1" source="3pad2oVf0Wh9DPUIv5oC-1" target="3pad2oVf0Wh9DPUIv5oC-2">
          <mxGeometry width="50" height="50" relative="1" as="geometry">
            <mxPoint x="520" y="370" as="sourcePoint" />
            <mxPoint x="570" y="320" as="targetPoint" />
          </mxGeometry>
        </mxCell>
        <mxCell id="3pad2oVf0Wh9DPUIv5oC-11" value="" style="endArrow=classic;html=1;rounded=0;entryX=0;entryY=0.5;entryDx=0;entryDy=0;entryPerimeter=0;exitX=1;exitY=0.75;exitDx=0;exitDy=0;" edge="1" parent="1" source="3pad2oVf0Wh9DPUIv5oC-1" target="3pad2oVf0Wh9DPUIv5oC-3">
          <mxGeometry width="50" height="50" relative="1" as="geometry">
            <mxPoint x="400" y="580" as="sourcePoint" />
            <mxPoint x="450" y="530" as="targetPoint" />
          </mxGeometry>
        </mxCell>
        <mxCell id="3pad2oVf0Wh9DPUIv5oC-12" value="" style="shape=flexArrow;endArrow=classic;startArrow=classic;html=1;rounded=0;fillColor=#fff2cc;strokeColor=#d6b656;" edge="1" parent="1">
          <mxGeometry width="100" height="100" relative="1" as="geometry">
            <mxPoint x="50" y="480" as="sourcePoint" />
            <mxPoint x="560" y="570" as="targetPoint" />
            <Array as="points">
              <mxPoint x="50" y="570" />
              <mxPoint x="310" y="570" />
            </Array>
          </mxGeometry>
        </mxCell>
        <mxCell id="3pad2oVf0Wh9DPUIv5oC-15" value="&lt;b&gt;&lt;font style=&quot;font-size: 18px;&quot;&gt;Stateborn backend architecture&lt;/font&gt;&lt;/b&gt;" style="text;html=1;strokeColor=none;fillColor=none;align=center;verticalAlign=middle;whiteSpace=wrap;rounded=0;" vertex="1" parent="1">
          <mxGeometry x="50" y="230" width="130" height="70" as="geometry" />
        </mxCell>
        <mxCell id="3pad2oVf0Wh9DPUIv5oC-16" value="Ethereum Mainnet RPC&lt;br&gt;&amp;nbsp;(archive node)" style="rounded=0;whiteSpace=wrap;html=1;fillColor=#f5f5f5;fontColor=#333333;strokeColor=#666666;" vertex="1" parent="1">
          <mxGeometry x="275" y="-30" width="200" height="60" as="geometry" />
        </mxCell>
        <mxCell id="3pad2oVf0Wh9DPUIv5oC-17" value="Polygon Mainnet&lt;br&gt;RPC&lt;br&gt;(archive node)" style="rounded=0;whiteSpace=wrap;html=1;fillColor=#f5f5f5;fontColor=#333333;strokeColor=#666666;" vertex="1" parent="1">
          <mxGeometry x="275" y="110" width="200" height="60" as="geometry" />
        </mxCell>
        <mxCell id="3pad2oVf0Wh9DPUIv5oC-18" value="Arbitrum One&lt;br&gt;RPC&amp;nbsp;&lt;br&gt;(archive node)" style="rounded=0;whiteSpace=wrap;html=1;fillColor=#f5f5f5;fontColor=#333333;strokeColor=#666666;" vertex="1" parent="1">
          <mxGeometry x="275" y="40" width="200" height="60" as="geometry" />
        </mxCell>
        <mxCell id="3pad2oVf0Wh9DPUIv5oC-19" value="" style="shape=flexArrow;endArrow=classic;startArrow=classic;html=1;rounded=0;exitX=0.148;exitY=0.35;exitDx=0;exitDy=0;exitPerimeter=0;fillColor=#fff2cc;strokeColor=#d6b656;" edge="1" parent="1">
          <mxGeometry width="100" height="100" relative="1" as="geometry">
            <mxPoint x="369.6600000000001" y="380" as="sourcePoint" />
            <mxPoint x="369.74" y="180" as="targetPoint" />
          </mxGeometry>
        </mxCell>
        <mxCell id="3pad2oVf0Wh9DPUIv5oC-22" value="&lt;b&gt;HTTP (RPC)&lt;/b&gt;" style="text;html=1;strokeColor=none;fillColor=none;align=center;verticalAlign=middle;whiteSpace=wrap;rounded=0;" vertex="1" parent="1">
          <mxGeometry x="380" y="270" width="60" height="30" as="geometry" />
        </mxCell>
        <mxCell id="3pad2oVf0Wh9DPUIv5oC-24" value="Custom network RPC&lt;br&gt;(archive node)" style="rounded=0;whiteSpace=wrap;html=1;fillColor=#f5f5f5;fontColor=#333333;strokeColor=#666666;" vertex="1" parent="1">
          <mxGeometry x="470" y="200" width="230" height="60" as="geometry" />
        </mxCell>
        <mxCell id="3pad2oVf0Wh9DPUIv5oC-26" value="" style="shape=flexArrow;endArrow=classic;html=1;rounded=0;fillColor=#fff2cc;strokeColor=#d6b656;entryX=-0.013;entryY=0.513;entryDx=0;entryDy=0;entryPerimeter=0;" edge="1" parent="1" target="3pad2oVf0Wh9DPUIv5oC-24">
          <mxGeometry width="50" height="50" relative="1" as="geometry">
            <mxPoint x="380" y="231" as="sourcePoint" />
            <mxPoint x="460" y="230" as="targetPoint" />
          </mxGeometry>
        </mxCell>
        <mxCell id="3pad2oVf0Wh9DPUIv5oC-27" value="optional" style="text;html=1;strokeColor=none;fillColor=none;align=center;verticalAlign=middle;whiteSpace=wrap;rounded=0;" vertex="1" parent="1">
          <mxGeometry x="390" y="200" width="60" height="30" as="geometry" />
        </mxCell>
        <mxCell id="3pad2oVf0Wh9DPUIv5oC-28" value="" style="shape=image;verticalLabelPosition=bottom;labelBackgroundColor=default;verticalAlign=top;aspect=fixed;imageAspect=0;image=data:image/svg+xml,PHN2ZyB4bWxucz0iaHR0cDovL3d3dy53My5vcmcvMjAwMC9zdmciIHZpZXdCb3g9IjAgMCA1MTIgNTEyIiByb2xlPSJpbWciIGFyaWEtbGFiZWw9IkV0aGVyZXVtIj48cmVjdCBmaWxsLW9wYWNpdHk9IjAiIGZpbGw9IiNmZmZmZmYiIHJ4PSIxNSUiIGhlaWdodD0iNTEyIiB3aWR0aD0iNTEyIi8+PHBhdGggZD0ibTI1NiAzNjJ2MTA3bDEzMS0xODV6IiBmaWxsPSIjM0MzQzNCIi8+PHBhdGggZD0ibTI1NiA0MWwxMzEgMjE4LTEzMSA3OC0xMzItNzgiIGZpbGw9IiMzNDM0MzQiLz48cGF0aCBkPSJtMjU2IDQxdjE1OGwtMTMyIDYwbTAgMjVsMTMyIDc4djEwNyIgZmlsbD0iIzhDOEM4QyIvPjxwYXRoIGQ9Im0yNTYgMTk5djEzOGwxMzEtNzgiIGZpbGw9IiMxNDE0MTQiLz48cGF0aCBkPSJtMTI0IDI1OWwxMzItNjB2MSIgZmlsbD0iIzM5MzkzOSIvPjwvc3ZnPg==;" vertex="1" parent="1">
          <mxGeometry x="265" y="-26.659999999999997" width="56.66" height="56.66" as="geometry" />
        </mxCell>
        <mxCell id="3pad2oVf0Wh9DPUIv5oC-29" value="" style="shape=image;verticalLabelPosition=bottom;labelBackgroundColor=default;verticalAlign=top;aspect=fixed;imageAspect=0;image=data:image/svg+xml,PHN2ZyB4bWxuczp4bGluaz0iaHR0cDovL3d3dy53My5vcmcvMTk5OS94bGluayIgeG1sbnM9Imh0dHA6Ly93d3cudzMub3JnLzIwMDAvc3ZnIiB4bWw6c3BhY2U9InByZXNlcnZlIiBzdHlsZT0iZW5hYmxlLWJhY2tncm91bmQ6bmV3IDAgMCA4MDAgNjAwOyIgdmlld0JveD0iMCAwIDgwMCA2MDAiIHk9IjBweCIgeD0iMHB4IiBpZD0ia2F0bWFuXzEiIHZlcnNpb249IjEuMCI+JiN4YTs8c3R5bGUgdHlwZT0idGV4dC9jc3MiPiYjeGE7CS5zdDB7ZmlsbDojODI0N0U1O30mI3hhOwkuc3Qxe2NsaXAtcGF0aDp1cmwoI1NWR0lEXzAwMDAwMTcwOTg1ODc0NDg0MjI2Nzg0NzQwMDAwMDEwMTk3MTIxODMzMTU5MDUzMTkzXyk7fSYjeGE7CS5zdDJ7ZmlsbDojRkZGRkZGO30mI3hhOzwvc3R5bGU+JiN4YTs8cGF0aCBkPSJNMzk5LjgsNDUuNEwzOTkuOCw0NS40QzU0MC4yLDQ1LjQsNjU0LDE1OS4yLDY1NCwyOTkuNmwwLDBjMCwxNDAuNC0xMTMuOCwyNTQuMS0yNTQuMSwyNTQuMWwwLDAmIzEwOyYjOTtjLTE0MC40LDAtMjU0LjEtMTEzLjgtMjU0LjEtMjU0LjFsMCwwQzE0NS43LDE1OS4yLDI1OS41LDQ1LjQsMzk5LjgsNDUuNHoiIGNsYXNzPSJzdDAiLz4mI3hhOzxnPiYjeGE7CTxkZWZzPiYjeGE7CQk8cmVjdCBoZWlnaHQ9IjI5MS45IiB3aWR0aD0iMzMzLjEiIHk9IjE1NS4zIiB4PSIyMzEuNSIgaWQ9IlNWR0lEXzFfIi8+JiN4YTsJPC9kZWZzPiYjeGE7CTxjbGlwUGF0aCBpZD0iU1ZHSURfMDAwMDAxMTk4MjQwNDA5MDcyODk5MzYzNjAwMDAwMDU1NDU5NTAxOTg0MjM1MDUwNjRfIj4mI3hhOwkJPHVzZSBzdHlsZT0ib3ZlcmZsb3c6dmlzaWJsZTsiIHhsaW5rOmhyZWY9IiNTVkdJRF8xXyIvPiYjeGE7CTwvY2xpcFBhdGg+JiN4YTsJPGcgc3R5bGU9ImNsaXAtcGF0aDp1cmwoI1NWR0lEXzAwMDAwMTE5ODI0MDQwOTA3Mjg5OTM2MzYwMDAwMDA1NTQ1OTUwMTk4NDIzNTA1MDY0Xyk7Ij4mI3hhOwkJPHBhdGggZD0iTTQ4My4xLDI0NC4yYy02LjEtMy41LTEzLjktMy41LTIwLjgsMEw0MTMuNywyNzNsLTMzLDE4LjNMMzMzLDMyMGMtNi4xLDMuNS0xMy45LDMuNS0yMC44LDBsLTM3LjMtMjIuNyYjMTA7JiM5OyYjOTsmIzk7Yy02LjEtMy41LTEwLjQtMTAuNS0xMC40LTE4LjN2LTQzLjZjMC03LDMuNS0xMy45LDEwLjQtMTguM2wzNy4zLTIxLjhjNi4xLTMuNSwxMy45LTMuNSwyMC44LDBsMzcuMywyMi43JiMxMDsmIzk7JiM5OyYjOTtjNi4xLDMuNSwxMC40LDEwLjUsMTAuNCwxOC4zdjI4LjhsMzMtMTkuMnYtMjkuNmMwLTctMy41LTEzLjktMTAuNC0xOC4zbC02OS40LTQxYy02LjEtMy41LTEzLjktMy41LTIwLjgsMEwyNDIsMTk4LjkmIzEwOyYjOTsmIzk7JiM5O2MtNi45LDMuNS0xMC40LDEwLjUtMTAuNCwxNy40djgxLjljMCw3LDMuNSwxMy45LDEwLjQsMTguM2w3MC4zLDQxYzYuMSwzLjUsMTMuOSwzLjUsMjAuOCwwbDQ3LjctMjcuOWwzMy0xOS4ybDQ3LjctMjcuOSYjMTA7JiM5OyYjOTsmIzk7YzYuMS0zLjUsMTMuOS0zLjUsMjAuOCwwbDM3LjMsMjEuOGM2LjEsMy41LDEwLjQsMTAuNSwxMC40LDE4LjN2NDMuNmMwLDctMy41LDEzLjktMTAuNCwxOC4zbC0zNi40LDIxLjgmIzEwOyYjOTsmIzk7JiM5O2MtNi4xLDMuNS0xMy45LDMuNS0yMC44LDBMNDI1LDM4NC41Yy02LjEtMy41LTEwLjQtMTAuNS0xMC40LTE4LjN2LTI3LjlsLTMzLDE5LjJ2MjguOGMwLDcsMy41LDEzLjksMTAuNCwxOC4zbDcwLjMsNDEmIzEwOyYjOTsmIzk7JiM5O2M2LjEsMy41LDEzLjksMy41LDIwLjgsMGw3MC4zLTQxYzYuMS0zLjUsMTAuNC0xMC41LDEwLjQtMTguM3YtODIuOGMwLTctMy41LTEzLjktMTAuNC0xOC4zTDQ4My4xLDI0NC4yeiIgY2xhc3M9InN0MiIvPiYjeGE7CTwvZz4mI3hhOzwvZz4mI3hhOzwvc3ZnPg==;" vertex="1" parent="1">
          <mxGeometry x="271.65999999999997" y="117.51" width="60" height="44.99" as="geometry" />
        </mxCell>
        <mxCell id="3pad2oVf0Wh9DPUIv5oC-30" value="" style="shape=image;verticalLabelPosition=bottom;labelBackgroundColor=default;verticalAlign=top;aspect=fixed;imageAspect=0;image=data:image/svg+xml,PHN2ZyB4bWxuczp4bGluaz0iaHR0cDovL3d3dy53My5vcmcvMTk5OS94bGluayIgeG1sbnM9Imh0dHA6Ly93d3cudzMub3JnLzIwMDAvc3ZnIiB4bWw6c3BhY2U9InByZXNlcnZlIiBzdHlsZT0iZW5hYmxlLWJhY2tncm91bmQ6bmV3IDAgMCAyNTAwIDI1MDA7IiB2aWV3Qm94PSIwIDAgMjUwMCAyNTAwIiB5PSIwcHgiIHg9IjBweCIgaWQ9IkxheWVyXzEiIHZlcnNpb249IjEuMSI+JiN4YTs8c3R5bGUgdHlwZT0idGV4dC9jc3MiPiYjeGE7CS5zdDB7ZmlsbDpub25lO30mI3hhOwkuc3Qxe2ZpbGw6IzIxMzE0Nzt9JiN4YTsJLnN0MntmaWxsOiMxMkFBRkY7fSYjeGE7CS5zdDN7ZmlsbDojOURDQ0VEO30mI3hhOwkuc3Q0e2ZpbGw6I0ZGRkZGRjt9JiN4YTs8L3N0eWxlPiYjeGE7PGcgaWQ9IkxheWVyX3gwMDIwXzEiPiYjeGE7CTxnIGlkPSJfMjQwNTU4ODQ3NzIzMiI+JiN4YTsJCTxyZWN0IGhlaWdodD0iMjUwMCIgd2lkdGg9IjI1MDAiIGNsYXNzPSJzdDAiLz4mI3hhOwkJPGc+JiN4YTsJCQk8Zz4mI3hhOwkJCQk8cGF0aCBkPSJNMjI2LDc2MHY5ODBjMCw2MywzMywxMjAsODgsMTUybDg0OSw0OTBjNTQsMzEsMTIxLDMxLDE3NSwwbDg0OS00OTBjNTQtMzEsODgtODksODgtMTUyVjc2MCAgICAgIGMwLTYzLTMzLTEyMC04OC0xNTJsLTg0OS00OTBjLTU0LTMxLTEyMS0zMS0xNzUsMEwzMTQsNjA4Yy01NCwzMS04Nyw4OS04NywxNTJIMjI2eiIgY2xhc3M9InN0MSIvPiYjeGE7CQkJCTxnPiYjeGE7CQkJCQk8Zz4mI3hhOwkJCQkJCTxnPiYjeGE7CQkJCQkJCTxwYXRoIGQ9Ik0xNDM1LDE0NDBsLTEyMSwzMzJjLTMsOS0zLDE5LDAsMjlsMjA4LDU3MWwyNDEtMTM5bC0yODktNzkzQzE0NjcsMTQyMiwxNDQyLDE0MjIsMTQzNSwxNDQweiIgY2xhc3M9InN0MiIvPiYjeGE7CQkJCQkJPC9nPiYjeGE7CQkJCQkJPGc+JiN4YTsJCQkJCQkJPHBhdGggZD0iTTE2NzgsODgyYy03LTE4LTMyLTE4LTM5LDBsLTEyMSwzMzJjLTMsOS0zLDE5LDAsMjlsMzQxLDkzNWwyNDEtMTM5TDE2NzgsODgzVjg4MnoiIGNsYXNzPSJzdDIiLz4mI3hhOwkJCQkJCTwvZz4mI3hhOwkJCQkJPC9nPiYjeGE7CQkJCTwvZz4mI3hhOwkJCQk8Zz4mI3hhOwkJCQkJPHBhdGggZD0iTTEyNTAsMTU1YzYsMCwxMiwyLDE3LDVsOTE4LDUzMGMxMSw2LDE3LDE4LDE3LDMwdjEwNjBjMCwxMi03LDI0LTE3LDMwbC05MTgsNTMwYy01LDMtMTEsNS0xNyw1ICAgICAgIHMtMTItMi0xNy01bC05MTgtNTMwYy0xMS02LTE3LTE4LTE3LTMwVjcxOWMwLTEyLDctMjQsMTctMzBsOTE4LTUzMGM1LTMsMTEtNSwxNy01bDAsMFYxNTV6IE0xMjUwLDBjLTMzLDAtNjUsOC05NSwyNUwyMzcsNTU1ICAgICAgIGMtNTksMzQtOTUsOTYtOTUsMTY0djEwNjBjMCw2OCwzNiwxMzAsOTUsMTY0bDkxOCw1MzBjMjksMTcsNjIsMjUsOTUsMjVzNjUtOCw5NS0yNWw5MTgtNTMwYzU5LTM0LDk1LTk2LDk1LTE2NFY3MTkgICAgICAgYzAtNjgtMzYtMTMwLTk1LTE2NEwxMzQ0LDI1Yy0yOS0xNy02Mi0yNS05NS0yNWwwLDBIMTI1MHoiIGNsYXNzPSJzdDMiLz4mI3hhOwkJCQk8L2c+JiN4YTsJCQkJPHBvbHlnb24gcG9pbnRzPSI2NDIsMjE3OSA3MjcsMTk0NyA4OTcsMjA4OCA3MzgsMjIzNCIgY2xhc3M9InN0MSIvPiYjeGE7CQkJCTxnPiYjeGE7CQkJCQk8cGF0aCBkPSJNMTE3Miw2NDRIOTM5Yy0xNywwLTMzLDExLTM5LDI3TDQwMSwyMDM5bDI0MSwxMzlsNTUwLTE1MDdjNS0xNC01LTI4LTE5LTI4TDExNzIsNjQ0eiIgY2xhc3M9InN0NCIvPiYjeGE7CQkJCQk8cGF0aCBkPSJNMTU4MCw2NDRoLTIzM2MtMTcsMC0zMywxMS0zOSwyN0w3MzgsMjIzM2wyNDEsMTM5bDYyMC0xNzAxYzUtMTQtNS0yOC0xOS0yOFY2NDR6IiBjbGFzcz0ic3Q0Ii8+JiN4YTsJCQkJPC9nPiYjeGE7CQkJPC9nPiYjeGE7CQk8L2c+JiN4YTsJPC9nPiYjeGE7PC9nPiYjeGE7PC9zdmc+;" vertex="1" parent="1">
          <mxGeometry x="281.65999999999997" y="50" width="40" height="40" as="geometry" />
        </mxCell>
        <mxCell id="3pad2oVf0Wh9DPUIv5oC-31" value="" style="shape=image;verticalLabelPosition=bottom;labelBackgroundColor=default;verticalAlign=top;aspect=fixed;imageAspect=0;image=https://plugins.jetbrains.com/files/18551/349727/icon/pluginIcon.png;" vertex="1" parent="1">
          <mxGeometry x="475" y="205" width="50" height="50" as="geometry" />
        </mxCell>
        <mxCell id="3pad2oVf0Wh9DPUIv5oC-32" value="" style="shape=image;verticalLabelPosition=bottom;labelBackgroundColor=default;verticalAlign=top;aspect=fixed;imageAspect=0;image=https://upload.wikimedia.org/wikipedia/commons/thumb/d/d9/Node.js_logo.svg/2560px-Node.js_logo.svg.png;" vertex="1" parent="1">
          <mxGeometry x="408.26" y="450" width="81.74" height="50" as="geometry" />
        </mxCell>
        <mxCell id="3pad2oVf0Wh9DPUIv5oC-38" value="" style="shape=image;verticalLabelPosition=bottom;labelBackgroundColor=default;verticalAlign=top;aspect=fixed;imageAspect=0;image=data:image/svg+xml,PHN2ZyB4bWxucz0iaHR0cDovL3d3dy53My5vcmcvMjAwMC9zdmciIHZpZXdCb3g9IjAuMzAgMS41NSAxMjcuMjcgMTI2Ljc3IiByb2xlPSJpbWciPjx0aXRsZT5Qb3N0Z3JlU1FMIGxvZ288L3RpdGxlPjxwYXRoIGQ9Ik04NS45ODggNzYuMDc1Yy42MzItNS4yNjIuNDQzLTYuMDM0IDQuMzYyLTUuMTgybC45OTUuMDg4YzMuMDE0LjEzNyA2Ljk1Ny0uNDg1IDkuMjcyLTEuNTYxIDQuOTg2LTIuMzEzIDcuOTQyLTYuMTc3IDMuMDI2LTUuMTYyLTExLjIxNSAyLjMxMy0xMS45ODYtMS40ODMtMTEuOTg2LTEuNDgzQzEwMy41IDQ1LjIwNCAxMDguNDUxIDIyLjkgMTA0LjE3OCAxNy40NCA5Mi41MjQgMi41NDggNzIuMzUgOS41OSA3Mi4wMTIgOS43NzNsLS4xMDguMDIxYy0yLjIxNi0uNDYxLTQuNjk1LS43MzUtNy40ODEtLjc4LTUuMDc1LS4wODMtOC45MjYgMS4zMzEtMTEuODQ3IDMuNTQ2IDAgMC0zNS45ODktMTQuODI3LTM0LjMxNSAxOC42NDYuMzU2IDcuMTIxIDEwLjIwNyA1My44ODIgMjEuOTU2IDM5Ljc1OCA0LjI5NC01LjE2NCA4LjQ0NC05LjUzMSA4LjQ0NC05LjUzMSAyLjA2MSAxLjM2OSA0LjUyOCAyLjA2NyA3LjExNiAxLjgxNmwuMi0uMTdjLS4wNjIuNjQxLS4wMzUgMS4yNjguMDgxIDIuMDEtMy4wMjcgMy4zODMtMi4xMzcgMy45NzctOC4xODkgNS4yMjItNi4xMjIgMS4yNjItMi41MjUgMy41MDgtLjE3OCA0LjA5NSAyLjg0OC43MTMgOS40MzMgMS43MjIgMTMuODg0LTQuNTA5bC0uMTc3LjcxMWMxLjE4OC45NSAxLjEwNyA2LjgyNyAxLjI3NSAxMS4wMjYuMTY4IDQuMTk5LjQ1IDguMTE3IDEuMzA2IDEwLjQyOS44NTYgMi4zMSAxLjg2NiA4LjI2MSA5LjgxOSA2LjU1NyA2LjY0Ni0xLjQyNiAxMS43MjctMy40NzYgMTIuMTktMjIuNTQ1Ii8+PHBhdGggZD0iTTcxLjIwOCAxMDIuNzdjLTMuNTE4IDAtNS44MDgtMS4zNi03LjItMi42NzQtMi4xLTEuOTgxLTIuOTMzLTQuNTM0LTMuNDMtNi4wNTlsLS4yMTUtLjYzN2MtMS4wMDItMi43MDUtMS4zNDEtNi41OTktMS41NDItMTEuNjEzYTE5OS4yNSAxOTkuMjUgMCAwIDEtLjA3NS0yLjM1MmMtLjAxNy0uNjAxLS4wMzgtMS4zNTUtLjA2OC0yLjE0NmExNS4xNTcgMTUuMTU3IDAgMCAxLTMuOTk3IDEuMjY0Yy0yLjQ4LjQyNC01LjE0Ni4yODYtNy45MjYtLjQwOS0xLjk2MS0uNDktMy45OTktMS41MDYtNS4xNi0zLjA3Ni0zLjM4NSAyLjk2NS02LjYxNCAyLjU2Mi04LjM3MyAxLjk3Ni0zLjEwMy0xLjAzNS01Ljg4LTMuOTQyLTguNDkxLTguODktMS44NTktMy41MjMtMy42NTgtOC4xMTUtNS4zNDctMTMuNjQ2LTIuOTQtOS42MzMtNC44MDgtMTkuNzc5LTQuOTc0LTIzLjEwOS0uNTIyLTEwLjQyNyAyLjI4NC0xNy44ODMgOC4zNC0yMi4xNiA5LjU1NS02Ljc0OSAyNC4wMy0yLjc4MSAyOS4zMDctLjk3OSAzLjU0NS0yLjEzNyA3LjcxNi0zLjE3OCAxMi40My0zLjEwMiAyLjUzMi4wNDEgNC45NDIuMjY0IDcuMTgxLjY2MiAyLjMzNS0uNzM0IDYuOTQ5LTEuNzg4IDEyLjIzLTEuNzIzIDkuNzMuMTE2IDE3Ljc5MyAzLjkwOCAyMy4zMTYgMTAuOTY2IDMuOTQxIDUuMDM2IDEuOTkzIDE1LjYxLjQ4IDIxLjQ2Ni0yLjEyNyA4LjIzNS01Ljg1NiAxNi45OTYtMTAuNDM2IDI0LjYyMiAxLjI0NC4wMDkgMy4wNDUtLjE0MSA1LjYwNy0uNjY5IDUuMDU0LTEuMDQ0IDYuNTMxIDEuNjY2IDYuOTMyIDIuODc5IDEuNjA3IDQuODY3LTUuMzc4IDguNTQ0LTcuNTU3IDkuNTU1LTIuNzkyIDEuMjk3LTcuMzQzIDIuMDg2LTExLjA3MSAxLjkxNWwtLjE2My0uMDExLS45NzktLjA4Ni0uMDk3LjgxNi0uMDkzLjc5OWMtLjI1IDkuNjY0LTEuNjMxIDE1Ljc4NC00LjQ3MiAxOS44MjktMi45NzcgNC4yMzktNy4xMTYgNS40MjgtMTAuNzYxIDYuMjA5YTE2LjE0NiAxNi4xNDYgMCAwIDEtMy4zOTYuMzgzem0tNy40MDItMzUuMTc0YzIuMjcxIDEuODE3IDIuNDcgNS4yMzYgMi42NDcgMTEuNjI2LjAyMi43OTcuMDQzIDEuNTUyLjA3MSAyLjI1Ny4wODYgMi4xMzQuMjg3IDcuMTMyIDEuMDY5IDkuMjQ0LjExMS4yOTguMjEuNjAyLjMxNC45MjIuODcyIDIuNjcyIDEuMzEgNC4wMTEgNS4wODEgMy4yMDMgMy4xNjctLjY3OCA0Ljc5NC0xLjI4NyA2LjA2OC0zLjEwMSAxLjg1Mi0yLjYzOCAyLjg4OC03Ljk0MSAzLjA3OC0xNS43NjdsMy44NTIuMDk0LTMuODI2LS40NTkuMTEyLS45NTVjLjM2Ny0zLjE0OC42MzEtNS40MjQgMi43MzYtNi45MjggMS42ODgtMS4yMDcgMy42MTMtMS4wOSA1LjE0Ni0uODE0LTEuNjg0LTEuMjcxLTIuMTUtMi43NjUtMi4yNzQtMy4zNzdsLS4zMjEtMS41ODIuOTAyLTEuMzRjNS4yLTcuNzE2IDkuNDg5LTE3LjE5OSAxMS43NjctMjYuMDE4IDIuMzQtOS4wNjIgMS42MjYtMTMuODc1LjkxMy0xNC43ODUtOS40NDYtMTIuMDcxLTI1LjgyOS03LjA4OC0yNy41MzktNi41MjFsLS4yOS4xNTYtMS40NS4yNzEtLjc0My0uMTU0Yy0yLjA0Ny0uNDI1LTQuMzIxLS42Ni02Ljc2LS43LTMuODMxLS4wNjQtNi45MjEuODQxLTkuNDU1IDIuNzY0bC0xLjc1OCAxLjMzMy0yLjA0MS0uODQxYy00LjM1OC0xLjc4Mi0xNy4xNjItNS4zNjUtMjMuOTE4LS41OC0zLjc1IDIuNjU2LTUuNDU4IDcuODYxLTUuMDc4IDE1LjQ3LjEyNSAyLjUxMiAxLjgzMyAxMi4wMjEgNC42NDcgMjEuMjQ1IDMuODkxIDEyLjc0NiA3LjQyNyAxNi45NzkgOC45MDMgMTcuNDcyLjI1Ny4wODcuOTI2LS40MzMgMS41OTEtMS4yMzEgNC4zMjYtNS4yMDMgOC40NC05LjU0IDguNjEzLTkuNzIzbDIuMjMxLTIuMzQ3IDIuNjk3IDEuNzkyYzEuMDg3LjcyMyAyLjI4NiAxLjEzMiAzLjUxOCAxLjIwOWw2LjQzMy01LjQ4Ni0uOTMyIDkuNTFjLS4wMjEuMjE0LS4wMzEuNTA0LjA1MyAxLjA0NGwuMjggMS44MDMtMS4yMTMgMS4zNTgtLjE0LjE1NyAzLjUzNCAxLjYzMiAxLjQ4Mi0xLjg1M3oiLz48cGF0aCBkPSJNMTAzLjY0NiA2NC4yNThjLTExLjIxNiAyLjMxMy0xMS45ODctMS40ODQtMTEuOTg3LTEuNDg0IDExLjg0Mi0xNy41NzEgMTYuNzkyLTM5Ljg3NiAxMi41Mi00NS4zMzVDOTIuNTI0IDIuNTQ3IDcyLjM1IDkuNTkgNzIuMDEzIDkuNzczbC0uMTA5LjAxOWMtMi4yMTYtLjQ1OS00LjY5NS0uNzMzLTcuNDgyLS43NzgtNS4wNzUtLjA4My04LjkyNSAxLjMzLTExLjg0NiAzLjU0NSAwIDAtMzUuOTktMTQuODI2LTM0LjMxNiAxOC42NDcuMzU2IDcuMTIxIDEwLjIwNyA1My44ODIgMjEuOTU2IDM5Ljc1OCA0LjI5NC01LjE2NCA4LjQ0My05LjUzMSA4LjQ0My05LjUzMSAyLjA2MSAxLjM2OSA0LjUyOCAyLjA2NyA3LjExNSAxLjgxNmwuMjAxLS4xN2MtLjA2Mi42NDEtLjAzNCAxLjI2OC4wOCAyLjAxLTMuMDI2IDMuMzgzLTIuMTM4IDMuOTc3LTguMTg4IDUuMjIyLTYuMTIzIDEuMjYyLTIuNTI2IDMuNTA4LS4xNzcgNC4wOTUgMi44NDcuNzEzIDkuNDMzIDEuNzIyIDEzLjg4My00LjUwOWwtLjE3OC43MTFjMS4xODYuOTUgMi4wMTkgNi4xNzkgMS44NzkgMTAuOTE5cy0uMjMzIDcuOTk0LjcwMiAxMC41MzZjLjkzNSAyLjU0MSAxLjg2NiA4LjI2MSA5LjgyIDYuNTU3IDYuNjQ2LTEuNDI1IDEwLjA5LTUuMTE2IDEwLjU3LTExLjI3Mi4zNC00LjM3NyAxLjEwOS0zLjczIDEuMTU4LTcuNjQ0bC42MTgtMS44NTNjLjcxMS01LjkzNC4xMTMtNy44NDggNC4yMDgtNi45NTdsLjk5NS4wODdjMy4wMTQuMTM4IDYuOTU4LS40ODUgOS4yNzMtMS41NjEgNC45ODYtMi4zMTQgNy45NDMtNi4xNzcgMy4wMjgtNS4xNjJ6IiBmaWxsPSIjMzM2NzkxIi8+PHBhdGggZD0iTTcxLjYxIDEwMC4zOTRjLTYuNjMxLjAwMS04LjczMS01LjI1LTkuNTkxLTcuMzk3LTEuMjU3LTMuMTQ2LTEuNTI5LTE1LjM1OC0xLjI0OS0yNS4zNzNhMS4yODYgMS4yODYgMCAwIDEgMi41Ny4wNzJjLS4zMjMgMTEuNTUxLjEzNiAyMi4wMTggMS4wNjYgMjQuMzQ2IDEuNDUzIDMuNjMyIDMuNjU2IDYuODA5IDkuODg3IDUuNDc1IDUuOTE1LTEuMjY5IDguMTMtMy41MTIgOS4xMTYtOS4yMy43NTgtNC4zODkgMi4yNTQtMTYuODc0IDIuNDM4LTE5LjMzOGExLjI4NSAxLjI4NSAwIDAgMSAyLjU2My4xOTFjLS4xOTIgMi41NjQtMS42ODIgMTUuMDI2LTIuNDY5IDE5LjU4NC0xLjE2NSA2Ljc1NS00LjE3NiA5LjgxOS0xMS4xMSAxMS4zMDZhMTUuNDYyIDE1LjQ2MiAwIDAgMS0zLjIyMS4zNjR6TTM1LjY1OSA3NC43NDlhNS4zNDMgNS4zNDMgMCAwIDEtMS43MDQtLjI4MWMtNC4zMDctMS40MzctOC40MDktOC40NTEtMTIuMTkzLTIwLjg0OS0yLjg4LTkuNDM4LTQuNzA1LTE5LjI4OC00Ljg2NS0yMi40ODktLjQ3NS05LjQ5IDEuOTctMTYuMjA1IDcuMjY1LTE5Ljk1NyAxMC40NzYtNy40MjMgMjguMS0uMzU0IDI4Ljg0NS0uMDVhMS4yODUgMS4yODUgMCAwIDEtLjk3MiAyLjM3OXYuMDAxYy0uMTctLjA3LTE3LjA3LTYuODQtMjYuMzkyLS4yMjktNC41MjggMy4yMTEtNi42MDcgOS4xNzUtNi4xOCAxNy43MjkuMTM1IDIuNjk2IDEuODQgMTIuMzExIDQuNzU3IDIxLjg2NyAzLjM3OCAxMS4wNjcgNy4yMjMgMTguMDUyIDEwLjU0OCAxOS4xNi41MjEuMTc1IDIuMTA5LjcwNCA0LjM4MS0yLjAyNiA0LjI3Mi01LjE0IDguMTk3LTkuMjQyIDguMjM2LTkuMjgzYTEuMjg2IDEuMjg2IDAgMCAxIDEuODU2IDEuNzc4Yy0uMDM5LjA0LTMuOTA0IDQuMDgxLTguMTE2IDkuMTQ4LTEuOTk1IDIuMzk4LTMuOTA4IDMuMTAyLTUuNDY2IDMuMTAyem01NS45Mi0xMC44MjlhMS4yODQgMS4yODQgMCAwIDEtMS4wNjUtMi4wMDRjMTEuOTcxLTE3Ljc2NCAxNi4xNzMtMzkuMjI3IDEyLjU3NC00My44MjUtNC41My01Ljc4OC0xMC45MjctOC44MTItMTkuMDEyLTguOTg1LTUuOTg3LS4xMy0xMC43NDYgMS4zOTktMTEuNTIzIDEuNjY2bC0uMTk1LjA3OWMtLjc4Mi4yNDYtMS4zODItLjE4My0xLjYwOC0uNjg0YTEuMjkgMS4yOSAwIDAgMSAuNTA4LTEuNjMxbC4zNDYtLjE0Mi0uMDE3LjAwNS4wMTgtLjAwNmMxLjMyMS0uNDgzIDYuMTUyLTEuOTMzIDEyLjEzNy0xLjg2NCA4Ljk0Ny4wOTQgMTYuMzM3IDMuNTQ1IDIxLjM3MSA5Ljk3NyAyLjM4MiAzLjA0NCAyLjM4NyAxMC4wNTcuMDE1IDE5LjI0LTIuNDE4IDkuMzYyLTYuOTY4IDE5LjQyNS0xMi40ODIgMjcuNjA3YTEuMjgyIDEuMjgyIDAgMCAxLTEuMDY3LjU2N3ptLjYxMSA4LjIyM2MtMi4wNDQgMC0zLjg3Ni0uMjg3LTQuOTczLS45NDUtMS4xMjgtLjY3NS0xLjM0My0xLjU5NC0xLjM3MS0yLjA4MS0uMzA4LTUuNDA0IDIuNjc0LTYuMzQ1IDQuMTk1LTYuNzc0LS4yMTItLjMyLS41MTQtLjY5Ny0uODI1LTEuMDg2LS44ODctMS4xMDgtMi4xMDEtMi42MjYtMy4wMzctNC44OTYtLjE0Ni0uMzU0LS42MDYtMS4xNzktMS4xMzgtMi4xMzMtMi44ODMtNS4xNjktOC44ODEtMTUuOTI2LTUuMDI4LTIxLjQzNSAxLjc4NC0yLjU0OSA1LjMzNC0zLjU1MiAxMC41NjYtMi45OTItMS41MzktNC42ODktOC44NjktMTkuMzU4LTI2LjI1OS0xOS42NDMtNS4yMzEtLjA4OC05LjUyMSAxLjUyMS0xMi43NDQgNC43NzUtNy4yMTcgNy4yODktNi45NTUgMjAuNDc3LTYuOTUyIDIwLjYwOGExLjI4NCAxLjI4NCAwIDEgMS0yLjU2OS4wNjdjLS4wMTYtLjU4NS0uMjg2LTE0LjQyNCA3LjY5NS0yMi40ODQgMy43MzUtMy43NzIgOC42NTEtNS42MzQgMTQuNjEyLTUuNTM3Qzc1LjQ5IDcuNzcgODIuNjUxIDEzLjQyNiA4Ni43IDE4LjE0YzQuNDEyIDUuMTM2IDYuNTc2IDEwLjgwMiA2Ljc1NCAxMi42OTIuMTMzIDEuNDA2LS44NzYgMS42ODgtMS4wOCAxLjcyOWwtLjQ2My4wMTFjLTUuMTM1LS44MjItOC40MjktLjI1Mi05Ljc5MSAxLjY5NS0yLjkzMSA0LjE4OCAyLjc0MyAxNC4zNjMgNS4xNjYgMTguNzA5LjYxOSAxLjEwOCAxLjA2NSAxLjkwOSAxLjI2OSAyLjQwNC43OTYgMS45MyAxLjgzNCAzLjIyNyAyLjY2OCA0LjI2OS43MzMuOTE3IDEuMzY5IDEuNzExIDEuNTk3IDIuNjQ1LjEwNS4xODUgMS42MDMgMi4zOTkgMTAuNDg4LjU2NSAyLjIyNy0uNDU5IDMuNTYyLS4wNjYgMy45NyAxLjE2OC44MDMgMi40MjktMy43MDIgNS4yNjEtNi4xOTYgNi40Mi0yLjIzOCAxLjAzOS01LjgwNSAxLjY5Ni04Ljg5MiAxLjY5NnptLTMuNzgxLTMuMjM4Yy4yODEuMjg1IDEuNjkxLjc3NSA0LjYxMi42NSAyLjU5Ni0uMTEyIDUuMzM1LS42NzcgNi45NzktMS40MzkgMi4xMDItLjk3NiAzLjUwNC0yLjA2NyA0LjIzMS0yLjgxMmwtLjQwNC4wNzRjLTUuNjgxIDEuMTczLTkuNjk5IDEuMDE3LTExLjk0Mi0uNDY1YTQuODIxIDQuODIxIDAgMCAxLS40MzUtLjMyM2MtLjI0My4wOTYtLjQ2OC4xNTktLjYyOC4yMDQtMS4yNzMuMzU3LTIuNTg5LjcyNi0yLjQxMyA0LjExMXptLTM2LjY5NyA3LjE3OWMtMS40MTEgMC0yLjg5Ni0uMTkxLTQuNDEzLS41NzItMS41NzEtLjM5My00LjIyMS0xLjU3Ni00LjE4LTMuNTE5LjA0NS0yLjE4MSAzLjIxNi0yLjgzNSA0LjQxMS0zLjA4MSA0LjMxMi0uODg4IDQuNTkzLTEuMjQ0IDUuOTQxLTIuOTU1LjM5My0uNDk5Ljg4Mi0xLjEyIDEuNTQ4LTEuODY1Ljk5LTEuMTA3IDIuMDcyLTEuNjY5IDMuMjE2LTEuNjY5Ljc5NiAwIDEuNDUuMjcxIDEuODgxLjQ0OSAxLjM3Ni41NyAyLjUyNCAxLjk0OCAyLjk5NiAzLjU5OC40MjYgMS40ODguMjIzIDIuOTItLjU3MiA0LjAzMi0yLjYwOCAzLjY1My02LjM1MiA1LjU4Mi0xMC44MjggNS41ODJ6bS01LjgxNy0zLjk4Yy4zODguMjk5IDEuMTY0LjY5OSAyLjAyNy45MTYgMS4zMTQuMzI4IDIuNTg4LjQ5NSAzLjc5LjQ5NSAzLjY2MiAwIDYuNjAxLTEuNTE3IDguNzM3LTQuNTA2LjQ0NS0uNjI0LjMxMi0xLjQxNS4xOTMtMS44MzItLjI1LS44NzItLjg3LTEuNjY1LTEuNTA5LTEuOTMxLS4zNDctLjE0NC0uNjM0LS4yNTQtLjg5OC0uMjU0LS4xNDIgMC0uNTczIDAtMS4zLjgxMy0uNjE0LjY4Ni0xLjA1NSAxLjI0Ni0xLjQ0NiAxLjc0MS0xLjY3OCAyLjEzMS0yLjQ0NyAyLjg1NC03LjQ0MSAzLjg4My0xLjIxOC4yNTItMS44NDMuNTA2LTIuMTUzLjY3NXptOS44ODItNS45MjhhMS4yODYgMS4yODYgMCAwIDEtMS4yNjktMS4wOSA2LjAyNiA2LjAyNiAwIDAgMS0uMDY0LS42NDRjLTMuMjc0LS4wNjItNi40MzItMS40NjYtOC44MjktMy45NjgtMy4wMzEtMy4xNjMtNC40MTEtNy41NDUtMy43ODUtMTIuMDIyLjY4LTQuODYyLjQyNi05LjE1NC4yODktMTEuNDZhMjUuNTE0IDI1LjUxNCAwIDAgMS0uMDYzLTEuNDI1Yy4wMDItLjQwNi4wMS0xLjQ4NSAzLjYxNS0zLjMxMiAxLjI4Mi0uNjUgMy44NTMtMS43ODQgNi42NjEtMi4wNzUgNC42NTQtLjQ4IDcuNzIxIDEuNTkyIDguNjM5IDUuODM2IDIuNDc4IDExLjQ2LjE5NiAxNi41MjktMS40NyAyMC4yMy0uMzExLjY4OC0uNjA0IDEuMzQtLjgzOCAxLjk3bC0uMjA3LjU1N2MtLjg4IDIuMzYtMS42NDEgNC4zOTktMS40MDcgNS45MjNhMS4yODcgMS4yODcgMCAwIDEtMS4wNzUgMS40NjZsLS4xOTcuMDE0ek00NC42MzQgMzUuOTIybC4wNTEuOTE4Yy4xNDIgMi4zOTUuNDA2IDYuODUzLS4zMSAxMS45NjktLjUxNiAzLjY5Mi42MTIgNy4yOTcgMy4wOTUgOS44ODggMS45NjIgMi4wNDggNC41NDYgMy4xNzggNy4yMDEgMy4xNzhoLjA1NWMuMjk4LTEuMjUzLjc5MS0yLjU3NSAxLjMyMi00bC4yMDYtLjU1M2MuMjY1LS43MTIuNTc1LTEuNDAxLjkwMy0yLjEzIDEuNjA0LTMuNTY0IDMuNi04IDEuMzAxLTE4LjYzMy0uNDU2LTIuMTA1LTEuNTYtMy4zMjQtMy4zNzUtMy43MjYtMy43MjgtLjgyNC05LjI4MyAxLjk4LTEwLjQ0OSAzLjA4OXptNy43NTYtLjU0NWMtLjA2NC40NTQuODMzIDEuNjY3IDIuMDAxIDEuODI5IDEuMTY3LjE2MyAyLjE2Ni0uNzg1IDIuMjI5LTEuMjM5LjA2My0uNDU1LS44MzMtLjk1NS0yLjAwMi0xLjExOC0xLjE2Ny0uMTYzLTIuMTY2LjA3My0yLjIyOC41Mjh6bTIuMjcgMi4yNzdsLS4zMjgtLjAyM2MtLjcyNS0uMTAxLTEuNDU4LS41NTgtMS45NTktMS4yMjMtLjE3Ni0uMjMzLS40NjQtLjY4Ny0uNDA3LTEuMDkxLjA4Mi0uNTkzLjgwNC0uOTQ3IDEuOTMzLS45NDcuMjUzIDAgLjUxNS4wMTkuNzguMDU1LjYxNi4wODYgMS4xODkuMjY0IDEuNjEyLjUuNzMzLjQxLjc4Ny44NjYuNzU0IDEuMTAzLS4wOTEuNjUzLTEuMTMzIDEuNjI2LTIuMzg1IDEuNjI2em0tMS44NDQtMi4yMDFjLjAzNy4yOC43MyAxLjIwNSAxLjYzNCAxLjMzbC4yMDkuMDE1Yy44MzQgMCAxLjQ1OC0uNjU3IDEuNTMxLS44NzItLjA3Ny0uMTQ2LS42MTMtLjUxMS0xLjYzMS0uNjUxYTQuNzIgNC43MiAwIDAgMC0uNjYxLS4wNDhjLS42NTItLjAwMS0xLjAwMS4xNDYtMS4wODIuMjI2em0zNS4xMjEtMS4wMDNjLjA2My40NTUtLjgzMiAxLjY2OC0yLjAwMSAxLjgzLTEuMTY4LjE2Mi0yLjE2Ny0uNzg1LTIuMjMxLTEuMjQtLjA2Mi0uNDU0LjgzNC0uOTU1IDIuMDAyLTEuMTE3IDEuMTY4LS4xNjQgMi4xNjYuMDc0IDIuMjMuNTI3em0tMi4yNyAyLjA2MmMtMS4xMjUgMC0yLjA5NC0uODc1LTIuMTc0LTEuNDQyLS4wOTItLjY4MSAxLjAyOS0xLjE5OSAyLjE4NS0xLjM1OS4yNTQtLjAzNi41MDYtLjA1NC43NDktLjA1NC45OTcgMCAxLjY1Ny4yOTMgMS43MjMuNzY0LjA0My4zMDYtLjE5MS43NzctLjU5NSAxLjIwMS0uMjY2LjI4LS44MjYuNzY1LTEuNTg4Ljg3bC0uMy4wMnptLjc1OS0yLjQyN2MtLjIyMyAwLS40NTUuMDE3LS42OS4wNDktMS4xNjIuMTYxLTEuODUzLjYyOC0xLjgyLjg3OC4wMzkuMjc0Ljc4IDEuMDcyIDEuNzUgMS4wNzJsLjIzOS0uMDE3Yy42MzQtLjA4OSAxLjExLS41MDIgMS4zMzctLjc0MS4zNTYtLjM3NS40OTgtLjcyNy40ODEtLjg0OC0uMDIxLS4xNTctLjQ0OS0uMzkzLTEuMjk3LS4zOTN6bTMuMTk0IDI2LjQ1M2ExLjI4NSAxLjI4NSAwIDAgMS0xLjA2Ny0yYzIuNzM2LTQuMDg3IDIuMjM1LTguMjU2IDEuNzUxLTEyLjI4Ni0uMjA3LTEuNzE4LS40Mi0zLjQ5My0uMzY0LTUuMTk4LjA1Ni0xLjc1My4yNzgtMy4xOTkuNDk0LTQuNTk5LjI1NS0xLjY1Ny40OTYtMy4yMjQuMzk2LTUuMDgyYTEuMjg2IDEuMjg2IDAgMCAxIDIuNTY3LS4xMzhjLjExNCAyLjEyNC0uMTU5IDMuODk2LS40MjMgNS42MTEtLjIwNCAxLjMyMy0uNDE1IDIuNjkxLS40NjYgNC4yOS0uMDQ5IDEuNTA5LjE0NCAzLjExMi4zNDggNC44MDguNTE2IDQuMjg3IDEuMDk5IDkuMTQ2LTIuMTY3IDE0LjAyMy0uMjQ4LjM3LS42NTUuNTcxLTEuMDY5LjU3MXoiIGZpbGw9IiNmZmYiLz48cGF0aCBkPSJNMi44MzUgMTAzLjE4NGEyNi4yMyAyNi4yMyAwIDAgMSA0LjM0My0uMzM4YzIuMjM1IDAgMy44NzQuNTIgNC45MTQgMS40NTYuOTYyLjgzMiAxLjUzNCAyLjEwNiAxLjUzNCAzLjY2NyAwIDEuNTg2LS40NjkgMi44MzQtMS4zNTMgMy43NDQtMS4xOTYgMS4yNzQtMy4xNDYgMS45MjQtNS4zNTYgMS45MjQtLjY3NiAwLTEuMy0uMDI2LTEuODE5LS4xNTZ2Ny4wMjFIMi44MzV2LTE3LjMxOHptMi4yNjMgOC40NWMuNDk0LjEzIDEuMTE4LjE4MiAxLjg3Mi4xODIgMi43MjkgMCA0LjM5NC0xLjMyNiA0LjM5NC0zLjc0NCAwLTIuMzE0LTEuNjM4LTMuNDMyLTQuMTM0LTMuNDMyLS45ODggMC0xLjc0Mi4wNzgtMi4xMzIuMTgydjYuODEyem0yMi4yMyAyLjQ3YzAgNC42NTQtMy4yMjUgNi42ODMtNi4yNjcgNi42ODMtMy40MDYgMC02LjAzMi0yLjQ5Ni02LjAzMi02LjQ3NSAwLTQuMjEyIDIuNzU2LTYuNjgyIDYuMjQtNi42ODIgMy42MTUtLjAwMSA2LjA1OSAyLjYyNiA2LjA1OSA2LjQ3NHptLTkuOTg0LjEzYzAgMi43NTYgMS41ODYgNC44MzYgMy44MjIgNC44MzYgMi4xODQgMCAzLjgyMS0yLjA1NCAzLjgyMS00Ljg4OCAwLTIuMTMyLTEuMDY1LTQuODM2LTMuNzctNC44MzZzLTMuODczIDIuNDk2LTMuODczIDQuODg4em0xMi41NTcgMy45MjZjLjY3Ni40NDIgMS44NzIuOTEgMy4wMTYuOTEgMS42NjQgMCAyLjQ0NC0uODMyIDIuNDQ0LTEuODcyIDAtMS4wOTItLjY0OS0xLjY5LTIuMzQtMi4zMTQtMi4yNjItLjgwNi0zLjMyOC0yLjA1NC0zLjMyOC0zLjU2MiAwLTIuMDI4IDEuNjM4LTMuNjkyIDQuMzQyLTMuNjkyIDEuMjc0IDAgMi4zOTMuMzY0IDMuMDk1Ljc4bC0uNTcyIDEuNjY0YTQuODk3IDQuODk3IDAgMCAwLTIuNTc0LS43MjhjLTEuMzUyIDAtMi4xMDYuNzgtMi4xMDYgMS43MTYgMCAxLjA0Ljc1NSAxLjUwOCAyLjM5MyAyLjEzMiAyLjE4NC44MzIgMy4zMDIgMS45MjQgMy4zMDIgMy43OTYgMCAyLjIxLTEuNzE2IDMuNzctNC43MDYgMy43Ny0xLjM3OCAwLTIuNjUyLS4zMzgtMy41MzYtLjg1OGwuNTctMS43NDJ6bTEzLjM2NS0xMy44NTl2My42MTRoMy4yNzV2MS43NDJoLTMuMjc1djYuNzg2YzAgMS41Ni40NDEgMi40NDQgMS43MTYgMi40NDRhNS4wOSA1LjA5IDAgMCAwIDEuMzI2LS4xNTZsLjEwNCAxLjcxNmMtLjQ0MS4xODItMS4xNDQuMzEyLTIuMDI3LjMxMi0xLjA2NiAwLTEuOTI1LS4zMzgtMi40NzEtLjk2Mi0uNjQ5LS42NzYtLjg4NC0xLjc5NC0uODg0LTMuMjc2di02Ljg2NGgtMS45NXYtMS43NDJoMS45NXYtMy4wMTZsMi4yMzYtLjU5OHptMTYuNTM2IDMuNjE1Yy0uMDUzLjkxLS4xMDQgMS45MjQtLjEwNCAzLjQ1OHY3LjMwNmMwIDIuODg2LS41NzIgNC42NTQtMS43OTQgNS43NDctMS4yMjIgMS4xNDQtMi45OSAxLjUwOC00LjU3NiAxLjUwOC0xLjUwOCAwLTMuMTcyLS4zNjQtNC4xODctMS4wNGwuNTcyLTEuNzQyYy44MzIuNTIgMi4xMzIuOTg4IDMuNjkyLjk4OCAyLjM0IDAgNC4wNTYtMS4yMjIgNC4wNTYtNC4zOTR2LTEuNDA0aC0uMDUyYy0uNzAyIDEuMTctMi4wNTQgMi4xMDYtNC4wMDQgMi4xMDYtMy4xMiAwLTUuMzU2LTIuNjUyLTUuMzU2LTYuMTM3IDAtNC4yNjQgMi43ODItNi42ODIgNS42NjgtNi42ODIgMi4xODUgMCAzLjM4MSAxLjE0NCAzLjkyNyAyLjE4NGguMDUybC4xMDQtMS44OThoMi4wMDJ6bS0yLjM2NiA0Ljk2NmMwLS4zOS0uMDI2LS43MjgtLjEzLTEuMDQtLjQxNi0xLjMyNi0xLjUzNC0yLjQxOC0zLjE5OC0yLjQxOC0yLjE4NSAwLTMuNzQ0IDEuODQ2LTMuNzQ0IDQuNzU4IDAgMi40NyAxLjI0OCA0LjUyNCAzLjcxOCA0LjUyNCAxLjQwNCAwIDIuNjc4LS44ODQgMy4xNzItMi4zNC4xMy0uMzkuMTgzLS44MzIuMTgzLTEuMjIydi0yLjI2MnptNS45MDEtMS4wNGMwLTEuNDgyLS4wMjYtMi43NTYtLjEwNC0zLjkyNmgyLjAwM2wuMDc3IDIuNDdoLjEwNGMuNTcyLTEuNjkgMS45NS0yLjc1NiAzLjQ4NC0yLjc1Ni4yNiAwIC40NDEuMDI2LjY0OS4wNzh2Mi4xNThhMy40MjggMy40MjggMCAwIDAtLjc3OS0uMDc4Yy0xLjYxMiAwLTIuNzU3IDEuMjIyLTMuMDY4IDIuOTM4YTYuNDQgNi40NCAwIDAgMC0uMTA0IDEuMDY2djYuNzA4aC0yLjI2MnYtOC42NTh6bTkuNTE3IDIuNzgyYy4wNTIgMy4wOTQgMi4wMjcgNC4zNjggNC4zMTUgNC4zNjggMS42MzkgMCAyLjYyNi0uMjg2IDMuNDg0LS42NWwuMzkgMS42MzhjLS44MDYuMzY0LTIuMTg0Ljc4LTQuMTg2Ljc4LTMuODc0IDAtNi4xODgtMi41NDgtNi4xODgtNi4zNDQgMC0zLjc5NiAyLjIzNi02Ljc4NyA1LjkwMi02Ljc4NyA0LjEwOCAwIDUuMiAzLjYxNCA1LjIgNS45MjggMCAuNDY4LS4wNTIuODMyLS4wNzggMS4wNjZoLTguODM5em02LjcwOC0xLjYzOGMuMDI1LTEuNDU2LS41OTktMy43MTgtMy4xNzItMy43MTgtMi4zMTQgMC0zLjMyOCAyLjEzMi0zLjUxMSAzLjcxOGg2LjY4M3oiLz48cGF0aCBkPSJNODQuMzcxIDExNy43NDRhOC4wMTYgOC4wMTYgMCAwIDAgNC4wNTYgMS4xNDRjMi4zMTQgMCAzLjY2Ni0xLjIyMiAzLjY2Ni0yLjk5IDAtMS42MzgtLjkzNi0yLjU3NC0zLjMwMi0zLjQ4NC0yLjg2LTEuMDE0LTQuNjI4LTIuNDk2LTQuNjI4LTQuOTY2IDAtMi43MyAyLjI2Mi00Ljc1OCA1LjY2OC00Ljc1OCAxLjc5NCAwIDMuMDk0LjQxNiAzLjg3NC44NThsLS42MjQgMS44NDZhNi45OCA2Ljk4IDAgMCAwLTMuMzI4LS44MzJjLTIuMzkyIDAtMy4zMDIgMS40My0zLjMwMiAyLjYyNiAwIDEuNjM4IDEuMDY1IDIuNDQ0IDMuNDg0IDMuMzggMi45NjQgMS4xNDUgNC40NzIgMi41NzQgNC40NzIgNS4xNDggMCAyLjcwNC0yLjAwMiA1LjA0NC02LjEzNiA1LjA0NC0xLjY5IDAtMy41MzYtLjQ5NC00LjQ3My0xLjExOGwuNTczLTEuODk4em0yNy41ODYgNS4zM2E5NC44NDYgOTQuODQ2IDAgMCAxLTYuNzA4LTIuMDI4Yy0uMzY0LS4xMy0uNzI4LS4yNi0xLjA2Ni0uMjYtNC4xNi0uMTU2LTcuNzIyLTMuMjI0LTcuNzIyLTguODY2IDAtNS42MTYgMy40MzItOS4yMyA4LjE2NC05LjIzIDQuNzU4IDAgNy44NTMgMy42OTIgNy44NTMgOC44NjYgMCA0LjQ5OC0yLjA4IDcuMzg0LTQuOTkyIDguMzk4di4xMDRjMS43NDIuNDQyIDMuNjQuODU4IDUuMTIyIDEuMTE4bC0uNjUxIDEuODk4em0tMS44NzItMTEuNDE0YzAtMy41MS0xLjgxOS03LjEyNS01LjUzOC03LjEyNS0zLjgyMiAwLTUuNjk0IDMuNTM2LTUuNjY4IDcuMzMzLS4wMjYgMy43MTggMi4wMjggNy4wNzIgNS41NjQgNy4wNzIgMy42MTUgMCA1LjY0Mi0zLjI3NiA1LjY0Mi03LjI4em01LjMyOS04LjY4NGgyLjI2M3YxNS42MjZoNy40ODh2MS44OThoLTkuNzUxdi0xNy41MjR6IiBmaWxsPSIjMzM2NzkxIi8+PC9zdmc+;" vertex="1" parent="1">
          <mxGeometry x="585" y="290" width="90" height="90" as="geometry" />
        </mxCell>
        <mxCell id="3pad2oVf0Wh9DPUIv5oC-39" value="" style="shape=image;verticalLabelPosition=bottom;labelBackgroundColor=default;verticalAlign=top;aspect=fixed;imageAspect=0;image=data:image/png,iVBORw0KGgoAAAANSUhEUgAAAyAAAAFACAYAAABEGxgbAAAABGdBTUEAALGPC/xhBQAAAAFzUkdCAK7OHOkAAAAgY0hSTQAAeiYAAICEAAD6AAAAgOgAAHUwAADqYAAAOpgAABdwnLpRPAAAAAZiS0dEAP8A/wD/oL2nkwAAAAlwSFlzAAALEwAACxMBAJqcGAAAcPVJREFUeNrt3XeYXNWdJ/zvzaFSh6pWlpBAImcw2AaTg40DTowTNjZgA8azO2nfCTvv7uy+O8E7M7tjm2TAxsYR5ww2NjmZnEFCEspSVXV3pZvT+8e9jWRM6upqdXX39/M89QiEKHWfulV9vvec3+8IINoL/lPTwvgzz2DDo3di/xPPWWHXqhd7rdZlAKAVi1ealZFrn7/rF5tWHfk2DB50EP6jlOOgEREREc1BAoeAptPFL26GP9ZBMFaFOjA4EDr2OwOr8xm30Tw2dGwNAGTD9PSB0oNKLn+NbJg/9xvjDWVoBOpQHtfus5yDSERERMQAQvT6Ltm4Aa0Xt6Kwz2rVrW4/wWs1L/NarbOCTicfR9Ef/FlRkqDk8x2tWLxFK5au1EcW391+cZ1f3Gcprl65ioNJRERExABC9MoufH4d/NFxfP3Nx+Ljv3/ogNByLvbbrY/47fbCyPdf8/+VVBVqobBTLRS/JeeMa7/+pmOe+/h9D0IdHsT1+6/m4BIRERExgBDtdsHTL2DnLbdg8SknLfSajfO8dutCv9M5NHRdAUnyBq9KAbKuJ2o+/6RWKF6vlQZu2n7bHTsXnnUWbjh4Pw4yEREREQMIzfvg8cBjsMfrKO63v+Hs2HJWYNmf9VuttwW2pSZx3N3FKYpQzJyvFot3KjnzCmPRsltaLzzvmINl3HDcERx0IiIiIgYQmnfB48FHAVGGlisoVm3Hkb7VuTiwrPcGljUch2FP/g5RlqHkcqNKLvcjNZe/NldZ9KhntQPEIW449ki+CERERESziMghoG6df/+DuPXv/wwAVrW2vvh3zujoTc7o6EVes9mz8AEAcRjCazaHndHRi5zR0ZtaW1/8OwCrbv37P8P59z/IF4KIiIhoFuEKCE3K55MET//+EXjtFrSBgXLQsc71O+1Lgnbn8NB15OSN1nl0e8EKAmTdCJVC/nE1X7hayed+7DUada1QxMFvOgr/ReAlTURERMQAQnPC34QJ1t92GwaWrTCseu2UoNO+zG+3Tw1s20he1lZ32i9cSYJimo5aKPxOyReuzJUrtzW2bHL2PeUU/JPMy5qIiIioX8kcAno9l2zYiNb2nfhHCfi4YRzW2rL5M3679Se+ZQ3HQTAjX1MSRfDbbSN03XNU2z4+cpzvaoZ5zT9KeGLT3fehuHghrl61ki8eERERUZ/hrWJ6VZ985hkIEfDoFdfhsIsvWOY1xj4atNuf8C3rgMj3gWnebvXGr2IhPT8kn39OLZZuUEvFbz1x7de2HHnZRUgk4KsHHcQXk4iIiIgBhPrZxx9+FPb2nRjYb1/Tqdff5Xesy/xW862h40jdttWd9otZFCEbRqQWS/eo+dyVRqXys8a6F2xz8UJ8/Wh2yyIiIiJiAKG+86lHnobbGoe5ZIHi7Kof77fbnw4s612hbZd62dlqOomyDNk0m0ou9zO1UPiysaB8v71tV6AXB/GVow7mi0xEREQ0gyQOAU34xAMP4vRjDhderI0dYO/a9Rdes/nf/WbzhNC29X5d9XglSRwj8jw99v3D4jA8I7SdilYobj396ENHC+94Jx6/7lq+2EREREQzhCsg89yXb0lw9+DjaG3ehIF9lo34bfuDfqd1id/pHBS6rtg3dR5dX+ECZF2P1Xz+GTVfvFotmN9rvLilWly+AieMH45Pn8W3ABEREREDCE27z23ZhPHNOxBFEYzBSs6p7jwldKzP+rZ98mxb8XhDF7ooQjZNVzXN22Ujd4UxsvA2Z7xmSZKEweWL8MVlK3hREBERETGA0HT41KYX4W7YjMUnnSjuuOf+I0PHvtRvtd4X2PbgbKnz6JYoy1BMc1wtFn8oG+ZVi956/KPb77gr1lctx1dW7MOLg4iIiIgBhHoWPNathb1pG575z3+PI6/791Vex/qE3+l8NOh09o2CoOu2upKiAACiaT4TRFJV6AMDEAC4zSZCz+vyqhcgKQqUfH69ms9/U8vnvvboRX++4aD/+z9hrliCr6xew4uFiIiIiAGEpuKTDz+C8ec3oLhqRTGw7fcGlnWZ3+kcG7mekCTdbbcSZRn64CCMoWEAgDM2Cq/RyIJI0rPLS5RlaMUizEoFaqEIAAhsG3a9BndsDN2u2giCCEnXEjWff1DJ5a5UTPNHrQ2bWoP7r8JXjz6KFw0RERERAwhN1qeefAadLVswsHK52t5ZOynodC4JbfuswHVzSRR1d9FIUhoIyhWoxSIEKW2mlkQRgk4HztgY/HYLkech6WpVJQEEceJwQRhDw1ALhZf+niw9pKeht1qw6zV4rRam8v0oum7JpnmLks9fXVhYuaOxcbOfX7YMXzmUhxgSERERMYDQ6zr//oeBJMHS448Wt9x932F+p3NhYFkfDBxnQdztVilBgJrLwRwZgVYagCjLrxwf0ja48NtteK0mQsdBHIZI4vhVA4mQBQFBFCHrBrRSCWqxAFnXIYiv3S06DkN4zQbsahW+ZXW9lUxUFCiGsUvJ5b6n5vPXLzvhzU9svf/hGIKAG48/mhcVEREREQMIvZJPPP4Etvzip1h6+juWes3Gh0PLujiwrNWh73df56FpMMtlGMNlSJr2hsIKkiQNI76PyPMQ+R6SKEbySuFDTFc8JFWFqGkQJeml53ijIs+DM1qHXa8jmkJ9iKyqUHK5dXIud61WGvj21lt/uXXZOe/G1w4/jBcXEREREQMIAcD1SYLf3nkPIttBbtXyorNt57sCx7nUb7WPjTxX7batrijJ0AYGYI6MQM3l0lDQ5cQ+TR7J64aWKUkS+JYFu1qF12ggjrqsDxFFSJruq8XCg4phXGUsWfgza8PmlmQaOO1tb8WFAt86RERERAwg89SFo1W0H3sWueFBxRttvCnwnM8GHeudoWMX4m7rIkQRSi6HXLbdSpDk1w4PfXZZJ1G6LcuqVhFYFroPYBJkw2wr+dzPFc24Qhse+L01Oh4UjjgQ1w+P8OIjIiIiYgCZPz6zeROaa9fjO6efio/eee/+gWVdFNjWhwPbXhJPoSWuYpowyxXog4MQVXVWj1Hs+3DHx2HXawhsu+vnERUFimluU8zct5Vc7rpvvu0tz3/o1t+htGZfXLOchxgSERERMYDMYZ9+/El4kYD6I49i8JA1CyPb+ROv2b4wsK1DYt8Xkm7rPFQVxtAQjHIFsmHMqTELHQdOvQZnbAyR73f3ZhEEiKqaKGbuKa1UuF4yje+OP7V2Z/moI6FJCb58+KG8OImIiIgYQOaWi55Zj9Hnn8Xg6jU5p7bj7KBjXRrY9omh43RZ55FAkGTopRLMygjUQqH7Oo9+lyTw223YtSrcZhNJFHb1FhBEEbJh+Ipp3qXkc1cZlUU3j69baw3vfyCuO2hfXqREREREDCCz3/n3/B6BY2H5SSdLW++++02h617qW513hbY90P1BfAKUfB5mZQT6QCmr85j7kiiE22jCrlURdDrodsVIlGXIptlQc/mfybp+1dITTvj95jtujxQjhxvf+iZetEREREQMILPTJx56AjccfSg+fs8Dq7xW6+Oh43wicOx9ut1KBACyrsOsVKAPDUOa5XUe3Yp8H+7YKOxaDaHrdv08kqpCMcwXZcP4mlYsfv3rbz1uwwUPP4mvHcO2vUREREQMILPIh2+/B9auHRhafUDZqe96b+g4lwSWdXjkeVIyhcP2jMFBGJUKFDPHQQYQ2BacWg3O+Di6Ld4XBAGSpkVKLve4bBhXG+UFPxpb91w9t2ARvn3yWznIRERERAwg/enhJMHVjz+Fdq0OOV80Y9c5ObA6l/tW56TQdc2k27a6kgStWHypzkMQRQ72HpI4fqk+xGu1MJVxlnXdVnP5O5Rc/kuibtwedlp2oVLGJYcfgqN5fggRERExgFC/+IckwdO33oYTTz9FuOe3tx8auu4loeueF9r2cHd1HgkEQYSaL8ColKGVBiDKMgf6NcRhen6IU6vD77SRJHFXb5OsPmRU1vWbZF2/+q2nnfzkXbfelhx8+in4bwwhRERExABCM+nihx+B1bYx+sJ6DO+7cmkchh/zWq1Pho6zOgoCodvTwWXDgFkuz+s6j269VB9SryN0nC7fXQIkRUlkw1inFYtfFWX5G6PrN24d3m9f5Aomrj36KA40ERERMYDQ3nXJ8+tQW7cRhcUjA2597F2BbX0msJ3jI8+dWp3H0BDMysicO89jbwsdB3atCmdsbIr1IXqkmMb9ipm7Ri8P/ay9vdqorF6Jq/dfzUEmIiIiBhCafh9/+BG4u6pYcOih6ui6DW/zbeszgdV5R9d1Hkmyu85jZEFa5yFJ6Hb1hF5KD0iiKK0Pqe7aXR/SxTaqifoQJZf/pWrmrhleverOXU8+6esLRvB1roYQERERAwhNh/MfegxCFMBcsVRqr9t4YNBuXxw47nmB1VnY7XkeEAQopgmzXIE+OAhRUTjQ0yAOArjj47DrNQS23XW4E2UZSi6/UzH0m5RC4drC6pXP2pu2Romk4MZjjuBAExEREQMI9cZHbr8bY089jpFjj1vst9sfCzqdC33LWhP5fteTWUnTYAwPwyyXIWk6B3kviDwXdr0OZ3QUked1HRolVYWay61V8vnr1ULhG9UHH9g+dMjh+NbJJ3CQiYiIiAGEuvOZ0Ib9wBNwm01oxYFi4Nqnh5b9p6Fjvzl0XTWJ466eV5Rl6IODMCfO82Bnpb0rSRDYFuxaDe74OLo+jV4UIeu6LxvmfXLO/IKim7d6rUZLL5VgHncYrpFNjjURERHNKezJOs1adz6E0oplcuC6x3nN8csCyzondJxS3NU5EwkEUYJaKMCsjEArlVjnMWPRXYCSL6BomNBKA7BrVfjtNpI4mlSuT+IYgW2rkeedFHnuEXHO+4Wk61fmFi54oHnnQyEHmoiIiObcNIpD0Hufffop7Ny4Ge7OXRg44ID9g471iaDTPj90nKVRl52UAEAxDJiVEehDQ6zz6DNxEMAdG4NdqyLotm0vAElRIBvGViVfuFHJ577WeO655/WFC7Bw5XJccfAhHGgiIiJiAKHdLn5+AyLHQv3FF2EW8uXI8z4Q+cFnAss6PPJ9YUp1HkNDMIbLbKvb50LHgTNahzM2NtX6kETJ5R6XVOUaSdO+b7c79fI++0Aycrh2/1UcaCIiImIAme8++fjjaL6wAYNrDtCsXTtO99udy0LXPT3yvO7qPJIEoixDGxxEbmQkq/MQAXC7Vd+/pZIYgW3BqlbhTdSHdNO2VxQhaZov6/qtaiF/ZW7BolvH1z7nlfZbha8efjiHmoiIiBhA5qOLn34ezc2bsPC4o6Tqw08cGdj2pyPPe2/oOOXu6jzSg+uUfB65kQW76zxo1kmiCF6zCau6C0Gng64PlpQkyIZRlzTtR4ppfnnk6MMe3fnAI1Fp+Qpce/D+HGgiIiJiAJkvPnbHPXjoii/h6M98ZoXveZ8IbfuC0HFWTqXOQ9Z1GOUKjOFhSKrKQZ4DIt+HMzoKp15D6LpdP09WH7JRNs0bVE372sPXXLPpmM9ejm+c9FYOMhERETGAzGXn3/MAWtu2orh4SclrNc8JXffy0HGPjXxP7vout6LAGByCOVKBbLD16lwUOjbsag3O+BjiLkOqIAiQVC2UDf1BWde/pBVLv2ht39YsLlmKG996HAeZiIiIGEDmiquSBHf8+ncQNQ3G0KDe3rbtrZHvfza07dNDzy+k7Ve7eAEkCVqhAHNkBGqhCEEUOdhzWBLH8Nst2NUqvHYbSbfb9EQJsqa2ZdO8VVLVKwpLltzjjI27sefhpDNPxaU8F4aIiIgYQGavv1i/FpvXvojDzj5DePaOew4OrM6n/U7nvMjzFnR7AB0EAYppIlcZgTY4CFHmkSzzSRyG8MbHYdWqCGy767NcRFmGpGm71Hz+JiWX//KBJ7316Sdu/k2yfM0++Ld913CgiYiIiAFkNrm8E2DHHb/Frg1bsOyg1ctC1/1w6LgXhK5zYBQEXU8aZV2HMTwMY7gMSdM40PNY5Hlp297R0e7rQwQhrQ/RjWdlQ79B1vVvb3lm3ZYFq5Zh0Umn4Ut5nhlDREREDCB975PPP4exhx6BumhJTgiCc0Lb/lzoOG+OPE9KpnC3Wh8chFmpZG11OfwEIEkQ2BbsWg3uRNvernKIAEnTItkw7pNN84uJovzC37HNGjrmKHx1/wM4zkRERMQA0p/B4wW0167H8LGHyuOPPfXm0HY/Hfneu0PPK3a/X1+EWiggN7IAapF1HvQqOSSO4bdasKq74Lfb6Or8GKR1RbKmtSRV+6ls6l8ePOKQ+0YffDIsrNkXX91/Pw40ERERMYD0g4/ccQ9ERcF5bz5W+NZvb1sT2s4nQ9f9WOi6S6ZyR1o2TZjDZehDQxAVboWh1xcHAdyxMdijdYS2jamsuMm6vk3W9W/IpvHVj5x2ytqb7nswiYMA32LrXiIiImIAmTkfu/1ujK57BsMHH1n2GmMfCl3306FtHxIFgdBtnYekaTDLZdZ5UNcm6kPseh2R53X5DhcgKUoim+ZTsq5/WRsY+s7o04/Wh1cfhG+cfAIHmYiIiBhA9qYP3XwrwjBAbmgo77RaZ4Wue2loO2+NfE/vdvuLKMvQBgaQq4xAybHOg6YoSRBYFqxaFV6j0X19iChCUjVXNo17ZF2/yigWb7HGxjqyrOA7Z5/OcSYiIiIGkOl0f5Lg327+NQqFQdn2nMOCTvtzoeueG7nuQNxtnYcgQC0WYVYq0IolCJLEq4t6l0OiCF6rCbtWg99qdb8tS5Ig6XpD1vUfK/nCF03NeKLdHg//4uwzcTzDMhERETGA9Nb/SBI88+vf4sW1a7Fs9X6rEj/4ROi654eutzIOg66fVzFNmOUK6zxo2r1UH1KvpeeHdEmUFci6tlHW9RsFVfnalnUvbNhnzRocdOZp+H8ZRIiIiIgBZGo++ODDMEUBO594CsMrV5ZDy36Pb9uXRr53ZOz7Yrd3kyVVhTE0DKNShqwbvJporwldB06tDmdsFJHvd/fmFwSIqhpLqvaoappXyTnzJ6MbN9YXHnYI7DjB9449mgNNREREDCCT9Zmnn8PY2nUwVyxXrR3bT0mC8PLAcc6IPE+bSptTvVSCWRmBWiiwzoNmRpLAb7dh16pwm01MpU20pGmeYhi/ERT5S7lFi2+zN232h9asxjUH8/wQIiIi6i15rn5j5999N9xmGycetL/wk82bD21tfPGiOPA/FPl+ZSptdZV8HrmREWilEgRJ5hVEM3j7IK07UnIm9GYTVrWKoNOZdH1IEscIHUeLg+Cdkqoe13Jf/I5sGtedeND+T4794leJXirgxhPYMYuIiIh6NIWZi9/Uh397Gx760ldxzOcuXOw3Wx+LwuDC0HXXxGGIbtvqyroBs5LWeUiqyiuH+k7k+2l9SK2G0HW6DjXZ+SFrJVm5Xi0Vv/HQF6/ffszln8S3TzuFg0xEREQMIHv60G9uh1XdieKSRUXfst4dut5loeMeEweB0nXXIEWBMTgIszIC2TR5xVDfC20bdq0KZ3wccdBdcwVBECAqSiAb+kOyrl2p5nI/bW3b0cqNLMR3zjiZg0xERETzO4Cc96vfIPRc5CoLtMC23+J3Wp+NXPfM0PcL3e6LFyUJWmkARqUMNV+AIIq8WmjWSOIYfqcNp1aH12yg6/bSkgRZVduSrv9azRevUEzzXqu2y5M1HTe9/QwONBEREc2/AHLer3+Lm848De/7yc8OEGJ8OvT9j0aeO9JtnQcEAWouB3NkAfSBAQiy3PW2LaKZfXcLSMIQbqMBu7oLvmV1fS2LsgxJ06uyqn4zEfHlH77nXc9NvPeIiIiI5nwAufCpp9DatA2R50ItFReGlv3BwHE+Hfn+QXEYit1OsiRNg1kuwxguQ9I0Xh00Z0SeB2e0DrteR+R5XQcaUZZjSVWfUQzjy3LO/J7fbO2UNB3FFUtw/SGHcKCJiIho7gWQS17cgp0PPYz8gkreGRs/KwrDS2LPOynyfaXbtrqiLEMfGIRZqUDJ5dhWl+amJEFgWbBrNbiNcXTdDU4UIalqIGraHZIsX20MDd7S2VXrLDzmaFy9zzKOMxEREb2mWdNH9lO/fwxjmzZgcMVSYfSZZ46zavXLY897d9d1HkkCQZKgFgrIjSyAWiyyzoPm+O2GtI100TShDw7Cqu6C326n54dMInQncYzQdRUhCE5PVPU4K4p+qpjGlwZWLH3gPd/9XlJYsRzfOP44jjcRERG98pSk37/Aj/z2LkSeg3e+/Qzh5zffusrrtM9P4vgTkeftM5U6D8U007a6A4MQFYVXAs07cRDAbYzDrtUQ2PYU60O0FwVR/JqSy339prefueGDv/wV8gsW4YZjjuRAExER0ewJIOf95jaMrX0Ow6v2G4mj6EOBbX8q8tzDojAUplTnMVyGUR6GpOm8AmjeizwXTn0U9ujU6kMkWU4kVX1MVNWrJF39wegzz4+VDz0MN53J80OIiIiozwPIuT/8KYQ4hl4ZMbzR+mlxFP5pHAQnRr6vT6nOY3AQZpl1HkR/ZKI+pF6DOz61+hBRUWxZ024XVfUKtTR4m1urOoko4sfvezfHmYiIiPovgPzJb34HzwskKfSPjoLgM5HvnxuH4VC353kIogg1n4c5sgBaqQRBkthWl+gV3ywCkiiC12ymbXs7HXQd+CUJgiyPSar6Y0lRrolk9WFNU6LvnnEqx5mIiIgBZOZdND6G0TvvRdBqIbdo0Uqv0fh4EgQXREHQfZ0HAMU0YZQrMIaGWOdBNAlxEMAZG4NTz+pDuiTKMiRFeVFQlBu0gYGvWzt2bFSKRQy/7S24bnCIA01ERMQAsnf9xWgH6598GPb9D2Pg0IPKoee/J47CSyLXPSoOQzHpts5DVaEPDsGsVCAbBl9loi6FjpO27R0fQ+T73X3ITJwfouuPiJJ8taypP2k8+UzdPP5o7Hvo0fi34TwHmoiIiAFk+l383LPYev+DyK1ZrcS10dOTIPjTyPNOiYJA62rbR5JAkGXopRKMSgVqIWury+1WRFP4hBCQxDH8dgtOrQa32UQShl3VUAmiCElRPEnTbhMU5QtiZfhWa+26YOnxx+LaAw7kWBMRETGATI/zfnkL4iDEce9+h3jfj39+SBKFF0VB8KHY9ytxt3UeggAll4c5MgJ9YCCt8yCinkqiCG6jAbtaRWB10O0KpShJEFW1JinKdwRJvu7N577zqQd++stYVGTc9I6zONBEREQMIL3z0fsfwGPXfxMHv++dK0PX/UTouh+Jg2B1HEVdr1TIup6e5zE0DElV+YoSTbPI9+GOjcKu1RC6bpefPEIaRBRlnazr35J1/WtP//DnG4+48KP4Jg8xJCIiYgCZqvf+8KcIPRellSsK1rYd70UUXx763lFxEEhTqfMwhoZhDA9DNk2+kkR7WWjbcEZH4YyNTq0+RFEiWdUegSR+Kbdk0Y+aGze1ZU3Hj9i2l4iIiAFkss771a8R+T4SQdSFKDox9L1L4jA8Mw6CfLftPQFAMQwUli2DWixB4HkeRDMmSRIEnQ6sXbvgNRtdt+3Nzg/piLL8a1nVrk4k6S4hiV1JVXHT28/kQBMR0WuRs4cAQNzj14kHAMR7PJKX/XvAIdz7L9i0ePd3foDLzj4DX/zpLw+JXOfTSRRNqc5jT2o+D61Y4mGCRDN9B0MQoBaLkA0Dzq5d6OzaiW7e40kcI/K8fBKG70vi+ERBkr4ja/qXLzv7jKfc7/wAP/3Q+znYRETzkwRAAVAEUAEwBKCUPQayx1D239Vsbitlvyp7zHXDLGgEAKI9/r0DYAzAOIAGgGb2ayv7vVEAXvb/sLNRr+YP0/GkR15yGZafevoiSZE/Evn+xZHnrYmjSOhVR6rcggUoLlvOAELUP0kEseNgbN1aBI4ztfdmWh+SSJq2VlLVa6Mg/Nbm236749GrruA4ExHNbQaAMoBFAFYBWJY99sl+bzj7M1oWNrQsbEx1QphkAcPPwoaX/XMLwE4AmwFsArAVwBYAuwBUs+Di82WbvGlZAYmD8M1Bp/0/YlU7OQp8ma1wiea4JElvC/XipkCSIA5DIY6i/eMg/OfI986Og/DvAdzPgZ69ERWAjt1bIWb9Ff8qjzibxBDRG5MHsATAAQAOBnBIFjyWZ2Fjb3UXErB7G9fLC4sP2eOfIwA2gHoWRNYBeBrAMwDWZ6HE4ufADASQ4f0PEMwFI/8lSeLTI9/jCBPNrxzS0yeLfE9OkuT03MhIe/iAg94/+twzvJsxOw0D+EsAKzE3tjAk2L2Vw89+DQG4SLduTGznaCO9gzqWPZrgXnOiMoD9AbwJwFsAHAlgJJv49/s5ChKAQvZYCeBt2XvaykLJCwAeA/BwFkpezAILTXcAWXPuu1FctjwnCCJHl2i+EIQsfSTT8NQCCsuW5de8552477ln5vxIIt3H3Ivj4f1s0tsPd+JMAG8HcNg8eUdM7C13sslHC+k+8m1It3JsRHq3dEP2+23M3TumGtL9+ZwUTI9Wdv30uwEAhwI4C8BbAawBsHCOXBcKdtei7AfgbKR1JduyEHI30hX8tdn7nTfSpiOAKLkSBFGc3sGNkxk8w52I/vg9GSOwLMRdnpL+urNyUUyUXGk+jKQE4DMAPjDFH1ICgCcB/A3SLQF9cZXMs5+tMtK96kOvElBsANuzScmzAJ4C8HgWTObSHdMjAfwPpAXD1FsJgGsBXN/Hn2crAZwM4Bykqx0VzI8ZXB7pKs/+AN6N9GbQYwDuyB5PZOGRAWQ28W0LgWVDyeX48UM0w0LHgTNahzM6mgYQmlLWArACwLE9mvDzdNb+/dlbzB4HZBMUKwuLT+AP75hWZ/n3WgJw9KsEMZr6e/yHffh1KUhXO/4EwDsA7JuF8flKyoLXGQBOzd7TjwD4JYDbkW7bmneF7LMygASWhcbGDTDLFehDQzwBnWgmfvIFAdzxMdi1OgLb4oD0dlLRq+fhUv/skUN6t3hlFkhqSFexfg3gZqTFrs4s/L4SzK/Vr70pzIJrPwWPQwB8GMB7kW5Hoj8OI4uQrgidlYWPWwH8CMDvkW7dYgDp63ed46C9dQvcxjjMkRHopQEIksRLm2i6ZxNxDK/VhL2rCr/dQsIud0S9JiAtyj0NwEkALgVwG4CfA7grCydEMfpnu94aAJ8E8MEsRLPm543NwQ/IHn+Svce/jXSL1jgDSD9PhJIEfruN0LbhlUowKyNQ8nkIIq97oul4v4WWBbtegzs+zu1WRHvv5/Q+2eTufQDuA/ANpCsjDCLzW9QHAaQI4FwAlyPdascJWHcqAM5Duk3rLgBfzQJJkwGkn28BRBGcsTH47Tb0oSGY5TJkk/UhRD37Kee6sOs1OGNjiDy21yaaISWkHXZOBHAPgK8j3Uc+zqGZl2LM7La8owH8KdLtVgW+HD0xiHQL5tuQbr28JrvpMOd+8Mpz6ZuJggDWrl3wmk0Y5TKM4TLrQ4im8tMtCOA2GnBqVfi2DR4qStQXcgDOBHA8gN8A+CKAe8EzRuZjAJmJFRAd6VarvwZwINiXdDoMAPgQgBMA/G8AX8Icq6WS5+KrFrou2tu2wW82YY6MQGN9CNGkJHEMv9WCVc3qPGLWkBL1oSKA9yPtmnYD0m0bL3JY5lUA2dsrIMNIt1tdjvRAQZpeS7P3+Zwjz9mXLEngtdsIbBva4CDMygjUXG5aziggmkvvm8C2YNfqcMfHWOdBNDssB/C3AE4B8D8B/BbsPDUfRNi77VtXAvhvSO/Maxz+vWL7XH0/y3P9lYujCE69Dr/dhjFchjE8DFnXeUkTvfwnme/BqY/CqdcRem7XzyNkIZ/dsYj2+s/zE5HuGf8XAN/EPGrpOU952Hu1AWsA/DuAt4OF5nvTQ0gPKp2TH1izgiAIEEURSZIg7mI7SOR56OzYDq/ZgFkZgT44CFGWeWnTvJdEIdxGA3atBr/T6brOQxAEhg+imbcSwOeRnsD8eQA7OSRzlo+9swKyT3YtncMh3+uv728BNBhAZnKSlCRIkgSiKEIURURRNPlJTpIgsCy03M1wx8eRGxmBWiyybS/Nz+ARxwg6bVjVKrxWC0kUTekGgSAIL71PiWhGFZHu0R8C8DcAdnBI5qS9sQKyPAsf7+yz77uTPVpIC/Gt7J+bSOtiAqQHNYZIty9JSA9KVJFuH1ORns4+gLS7XB6AmT0MpI0eZtp2pK1456RZtQQQxzHiOIYkSZBl+aV/n+yEJ4kieM0GAsuCPjAAo1KGmsuzPoTmjdBxYFercMfHEAXdN87ZM3jELFQn6icKgI8irRP4O3AlhAFk8oYA/Hek58/MRCefJAsWY0ibK6wHsBbAVgDV7PfHsiCyZ+iIsv/3FX9sId1CNvFQs/BRyoJ7Ifu+lwJYhXT1ZynS08tzWTjZW2Nxb/Y9M4D0iyiKEMcxRFGEJEkvBZFJB5owgF2vwWs1YQyXYZbLkFgfQnNYFPhwx8Zg12oIne6bp+y53YrBg6ivf8Z/PJuY/VcAdQ7JnAsg07UFSwJwAdKC870ZPqIsYDwH4GGkNRDPZYHDAuBO8fmT7O+I9hjDNl55lXBitaQAYCQLJAcBOBTAfkhXh4YwPTUxDtIW2/ZcvXhnbRFEkiSIouilLVldb8sCEPk+Ojt3wGs1kRsZgTbA+hCaW+IwhNdswK7VEVidrtvqvrzOg9utaCYu52wiEmPmzx+YuIsqZD9PlT79OX9BFj7+F2b24DrqLX+PiXQvCQBORXrIoLGX3tO7srBxC9I7/5uQHrCZzPD4+llA2Q7gMQA/RLpNawHSlZGDARyZPVZkgaQXE8gNSA8gnNN3R2b3T6Js9WNiNQRA9/UhnQ6ajgOt0URuwQiUfCGtD+Eki2YjQQDiGH6nA6u6C16jkdZ5dLnVUMxqpRg8aIZtQ9pqdrQPwoe8R/DIZ5OPQaRnJSwCsBBABek+c2UGA5MG4FIATwL47iwPnwl48N0EG9PTnnUfAH+fTainUwJgHYAfA/gpgCeyyf5sGPeN2eOu7DNgGOnqyNEA3gLgCABLkK6idOO+LIQwgOw1SdLVBGnP+hBJkl7akz6piZIgIIljuONjCKwO9KFhmOUyZMMA0WwT2jaceh3O2Cgi398dSiadY3pTYC6KIgRJmlLNCVE2QfkV0m0a/UjKJvy5LJSUAeyLdNvGwUi7Uy3D3i9yHUJ6Vsg6AI/Mwtc9APCtbJLKAJKOwQb0fkVLBvCpbBI9ndYC+DaAHyDdYjWbfzCESFdwdiEtGi8hXR05DunZPMdkoe6N7vG3ka4Ezekfln0VQCRVhT4wgMgP4LVbSMJw0hOmKIpeatk7lfqQyPdh7dyRte2twBgagqioIOp3cRDAHRuDVashdLrfPvry4JFMoT2vYhgwKxXIugF71y44zQZXUWgqE69+Xr2PsgmEDaCG9C7pgwC+g3TrxnIAhwM4Aem5HWuwd7a5AMBhAP4awCVIi3dn2yTvJwB+xLfAtDoC01v30cpewyuQ1njMxSLCZvZ4GsA3shsQxwM4Mwt2i1/nM+y57DNjTpv5D/EkgSCKUAsF5BYtgloopl2qxsdh12vwLWvSW6B6WR8SOg7aW7bAGx+HObIAWqkEQZJA1F9TMgFJFMJvtWBVq/Db7a7rPF4pfHT9AaOqMIaHYVRGIGkaIAgo6jrkmgm7XkPo+3ztaD6xs8nFc9kkbBHSO6TvBPA2pNu1pts7AJwL4KuY2f313QRP/vCdXjrSeqF9p+n51wL4ZwDfw/w5JNNHepDgs0i3P+4P4KzsfXgk0lXSPcUAbsc8aJ09owFEEEXIhgFjeBj64BAkNV1hEGQZRqUCtViEM1qHUx/t6mTml9eHdLUtKws0XruNwLahlQZgjoxAyedfKsYlmukQH1gd2NUa3MY44jDsSfCYSncrUZahT7xXcrndK5lJAkFVkVu8GGqxCLuWfc1RxNeR5hsfaaHtDVkYOR7A+dnkpDyNf28OwIUAfoe0tSnRhOORttzt9eQmBnAngP8XwD2Ym6seb/QGxKPZ4+tIV0M+AOAkpPViQFp4fyv2zgGT8zOASIqK3MKF0Id2B48/+jOahvyixdBKA7DrNbhjY4jDYNLvjYnQMeW2vVEEZ2wUfqcNY2gYButDaIZFngu7XoczOorI674dfK+ChyCK0PJ5mCML0kM+ZfmVVzAFAUqxiIJhIA4DuI0Gz+Gh+ayJdM/3XQBOQ9p96ORp/Bl9LNJtNp+fx5NB+kMagPP2mAj30i0A/jPSFRBKbQfwfaT1bMdn78d3I63Remg+DMCMBRCtWERuwYLXn3QIApRcDkXDgF4qdb29ZGJb1kR9yJ4HGU560uf76OxK2/aa5Qr0oSGIisK3E+01cRDAzbYpBrbddae2Xp3nIYgi1HwBueFhaKUSMPF+eK2vK0nSv5vBg2iCDeBnSIvEP4m0VmPJNPw9CtLVlp8h3adOtG8Wenv5gZwgPcvizxk+XpUF4LcA7ke6RcvE7KvPml0BRJClSU08BFGENjAIJZdPJ161GgLbmvy7oVf1IQkQ2DZaW7fAbTZhVirQXuuOL1EvPs2jCH67BbtaSxs1TKGtbq/qPBQzB7NSgT44yCBO1BvbkO6VfxLAPyAtWu+1NUhrQZ7D9JwlQbPLSUgP1+ulxwH8P9k1Rq8fRG6dT9/wzBahd9FyV1QUmCMjaX1IrfaHLUYnoWf1IXEMr9lA0OlAHxyEWan84Z53oh4JLAt2rQp3fI86jym21Z3KqoekqulWxEoFsq7zBSLqrYmuT9sB/BvSjlm9/vl/LtIuPZs43PNaCWkjhF7eQdoF4P9DengfUZ8FkKl84bqO/NKl0AYGYNeq8BqNrgpZ96wPmdiWFXXzPFEIu57elTaHh2EMlyFxUkY9EHkenLFROPU6Qtft+nl6VmAuSdAGBmBW2IyBaC94EMCfAfgCen82wyEA3soAMu8dgrT9bq/ESIusf86hpTkXQCYmVGqxCMU04Q00YNdqu+tDJjEpmtiWNXGQ4ZTqQzwP7e074DbSbVn60CBEmdtSqItP8DCE12jArlbh21ZP6jy63m61R7tss1KBVhrgdkOivedhpFtZrkPaxrNXdKTtQH8IwOUwz1tHored155G2ubZ49DSnAwgL02MJAn60DCUfAHu2Fh6voDjdPFUCcIw7MH5IQkC20JriwO3MQ6zMpKeHyKKvOLo9a+eOIbfbsOuVnfXeXRJzK65KZ/nYZovNVx4qWsdwwfR3nQvgH9Buh1rsIfPewzSAmQWo89PRhZAenXSsod09YNF5zTHA8geJDVt7auVSi+17Z1KfYgkSS/Vh3SzLeul+hDLgj7A+hB6faHjwK5V4YyNIfb9GS8wl1QV+tAQzHKFLaeJZlYM4CakLTsvRu+6FS1Huv2GAWR+KqO3TQ42IO2uxsYGNH8CyEvflGGgsHQp9IHBtGi30ejqLnJv2vYKiMOX1YeUK+mp0EQT19pEncfo6O7VuykUmE8E6W4JkgT9pTqPHASBq3dEfcBCug3rdACrevScRhZqvod5cPgZ/ZFVPbyWgLST03oOK83LAJJOxNL96oppQi81YNWqCDqdrk5BnwgikiRNYVtWVh+yYwe8VivdljUwAFGWeRXOY0kUwW2Mp3Ue1gzXeWTPo+TzyGXXpyBJfJGI+stjWVj4SwC9eoMeAaAIoM7hnXfWACj06LlaSA8dDDmsNG8DyEsTKkmCPjwMpZCHOzoKu8tOQnvWh0ylbS+SBH67jcB2oDcb6basfAGCKCE9s4fmPgFIYvidDuxqFW6zgSQK0e2Oil5tt5J1HWa5DH14GJLKFTqiPhUgPUH5Y+jdIYWrACxlAJmX9ulhkH0RwPMcUmIA2YOkasgtXAS1NACnVoUzPo44CCb9PK/UtnfSQUQQkMQRnLEx+O02tIn6ENNkfcg8EDo2nNF0u1Xke7tDyRSCx5Ta6ioKjMFBGJURKIbBa5Co/z0H4G4Af9Kj5yshPYTuMQ7tvJsDLkHv6omeRnpuDREDyMsn/oqZg7xsObSBwbTLUKs56dOkX962V5Kk7tv2BgHsWhV+uwVjuAxjeJj1IXNUHARwx8dg12oIbHsKl/Efrnh03VZXkqAVS+nBngWuwhHNIh0Av0Z6kGAvfmDoAFZzWOedPHq3ihZnwdjmsBIDyCvPvCCIIrRSCUou91Lb3sC2J73//pXa9nYbRELXRXv7NnjZtixtYJD1IXPliotjeM0m7Oou+J1Oek7NFILHxLXX9XYrQYCSy73UVnf3dcbwQTSLPAFgJ4AVPXguKXseBekWL5ofBgBUevRcHoDNHFJiAHkDRFmGOZKe0TGVk6YnQsdECBEEofv6kE4HgW1DazSQGxnJ6kPYgWhWBo8kQWB1YFdr8JoNxGGAfqjzMMplGENcaSOa5TYibXm6okfPtwjpSggDyPxRQroK0qsAsolDSgwgkyDpOvILF0ErltK2vWPj6WRxknvh96wPmcq2rCSO4Y6PI+h0oA8Pw6xUIOs8g2E2CV0XTr3eH3UeSQJRVqAPDaZtdU0TEEUeJEg0u40jLfg9pUfPN5RNRtsc2nlDR+8OIHSza5KIAWQyE7SJbSlFYwW00kDX22X2bNs7tfND0voQa9dO+K3W7u0yisLXq4/FYZjWeVSrCBxn5tvqiiLUfB7myAJopdLu1TSGD6JZ/3GD9I5zDKAXy+RFADkO67yiIt1216sA4nFIiQGkS4IoQh8chJrPT6lgeCKI7Fkf0tX5IQkQ2DZaW7fAbTRgjlSgFUsQJBncs983Vw2SJIbfbsHe1V1jg1cKH1PdbqWYJsxKBfoggyvRHLUZ6YnTvQggOaR3xGn+0HoYQDwGEGIA6QFRUWCOLIBaLMGp17KtNJM/JHbP+pCpnB+SxDG8VhOBbUErlZAbWQAll2PL1D4Q2FZ6jYyN7W7tLMxcW11JVWEMD8MoVyDrnE8QzWG1bNLXi0mkgd501KLZQ+3hPDDKHkQMID0ZIF1HfsnSdFtWrQqv2UQcTv6Qz17Vh8RhCGd0FH6nDWNoGEa5zPqQGRJ5XtZFrY7Qdbp+np6d5yHL0EqltM4jn39pCxcRzVkOAL9HzyWhdwfS0eyg9PA1V9C71RRiAKGJCaJaLEIxTXitJuxqNa0P6fL8EEEQIEnSlNr2Rp6Pzo4d8JpN1ofs3asBSRTCbYyndR6W1X19Ri/qPLLzPNI6j5F0e54ss8aDaH7w0LuuVSLnBPNOhLSGqBcMcAsfMYBMg2yipw8OQc0X4IyNwal3Xx/y8vNDuqoPwR71Ic20ba9aLLFt73RdAnGMoNOBVd0Fv9VCHHW/2tyzOo9cDka5AmPPAMrwQcQA0sXHEnp3IjbNDgF6t20qB2CYQ0oMINNIVBTkFiyAVizCrtXgjI3u3vs/CROrHxOnqU+pPqTZRGBZ0IeGkKuMQDZNvlA9FNo27HoN7tgYoqD7n/c9226lKDCGshbNBrfgEdGUxeAe/vnG72GA1QAs45ASA8jeGDzDQGHZMmilEuzqLnitVlenXO/Ztneq9SF2tQq/1Urvig8PQVJZUziln8hBAGd0FHat2tUhlb0OHoIoQisWswYJRdZ5EM1vInq3asEAMv9YSNvn9oIO4KDsmow5tMQAMs0EQYBWKkHJ5eA1GmldgD35uoBXqg/pdltW6LrobNsKr9GAWalAGxiAKPOlntTrEUXwmk3YtWpX58G8UvCY0nkeggDFzKV1Hnw9iWj3z/BeFRHHnDjOO2Po3cGTIoDDkJ6uzgMJiQFkbxFlGUa5DLVQgDOanoDdzR3zPetDprQtK0ngt1tp295G1rY3n4cgSawRePVZPhDH8C0LdrUKrzGedjzrcpVBzGpxplrnIet62lZ3uAxJ44oWEb2kl21UQ3AFZL5pAmj08PkOA7AfgAc5tMQAspdJmob8osVp2956De74eE/qQ7raliUISOIY7vg4/E4HxuDQ7poBbt3545++tg1nbDQ988XzdoeSSeeY3hSYi4oCfXAQZrkCxTT5mhHRy2lZCOmFXrb0pdmhDWBnD59vCYBTADwEnpRMDCAzQBCg5HIoGgb0gcGe1YfIstx9fUgQwMq+DqOc3U1XVb5W2dg4Y6Nw6vWuupq9PHhMBMiun2fPOo9CgV3NiOjVmD0MIFYWQmj+cAE8n4WFXtzhEgG8H8C3AWzh8BIDyEzlEFHcoz4kPTfCt6xJP89EfUgv2vaGroP2tm3wmk3kRkaglQbSbVnzUBJH8FstWFnh/oye55FRcxN1HoOs8yCi11NA72pAOgwg89KTSDth9SrIHgbgPAD/gXRbHxEDyExJ60MqUPMF2PU6nLE9tvhMwsTqx1TrQ5Ak8NtthLYNbWAAZqUCJV+YPx2VkgSBZcGuVeE2Gl2dbP/y8DHV4CFpWtpWt1yGpPMsJyJ6Q4aR3nXuhV52RKLZYy2AOoDFPXo+HcDFAG4H8DCHlxhA+oCk6ygsWQJ9YCCd/I53V+Q8ETr23JYVdXEoXhxFcEZH4bfbMIaGYZTLc/5Mich1YWdNAroJga8UPLrebpUkEGU5rfOojEDJ5VjnQUSTsbCHAWQc6cGGNL9sAfBMDwMIAOwP4K8BfBZAlUNMDCD9QBCg5PMoGkZaqF6twu+0u27bO1GoPpX6kMj30dm1A16zCbNSgb7nqdpzZMzjIIA3Pg6rVk3rPKa43WrK53kIAtRCMd1uVSrN221wRNQ1CWnRb6/uWmwHV0DmozEA9wA4tYdhFgDeDeBFAP8f0m5bRAwgfTEnliToQ0NQ83m44+Ow63UEzuQnxnu27Z1SfUgCBI6N1pYtcJuNdGJcKM76iXESx/Dbbdi1Krxmc8rneUyMedfbrQQBimHCLJehDw5CZCMAIupOCcA+PXquIAsg7Fw0/0QA7gIwCqDSw+dVAVyahdp/ZQghBpA+I6oqzAUL0tPU67V0a5A/+U6Ie7bt3XM1ZPIrKzG8ZhNBx4I2UIJZGYGaz8++rUFJgsC24dTrcMbHumqF/PLwMeU6D1WFMTwMs1xhnQcRTdViAEt79Fw+gG0c0nnrUQCPATijx8+bA/DnAIoA/hHALg41MYD0mbQ+ZGkaRGo1eM1mV8XRE9uyJgrVu27bG4W760OGh2GUK5CnMmkWBCBJkMQxkjhKV3om5vJC+t8FUUpbzmZ/tluR76fBY7Te1WGQrxQ8prLdSpRlaKUSzEraiIB1HkTUA4egd/v2LQCbOKTz1jiAHwI4Cb3rhjXBRLoSsgzAPyM9IyTmkBMDSD8RBKjFrG1vswW7lrWHjeNJTVon6kMEQYAkSRBFcWr1ITt2wGu1YJYr0IcGIcpvvD4kiWNEnovQdhA4DiLfQxwE6fc0ETIEAYIoQlQUSKoGxTAgmwYkTZ/UGRhJFMFtNrK6ms6U6zwmxrKrVY8kgSCKUItFmJURaKUiBEnmKfRE1AsKgOOR3mHuhR0AtnJY560EwK1Ii9GPmKbr9b0ADgTwBQA3Id3yRQwg1D8fAwkEUYI+OAgln4c7Ngq7VkPoOF081R/WhwiC0F3bXgCBZaHlOPAaaX2IWiy+ZjiIPA9+q5Vu57ItRK8QOl7+fe8ZRiRFgWLmoJVKUItFSJr2miFnos7Db7UQd9ER7OXhY6rbrWTTzAr6hyFNFPQzfBBRbywGcHIPn289uEd/vtsI4DsADkLvV0EmHADgfwM4C8A1SGtPOhx6BhDqM5KiILdgIbRCEXat1nUtw571IVM5PySJY7jNBnzbgjE4CKNcgWKafxAmIs+FMzYGd3wcoW3/8d/xais5e/x+EscIPQ+h58FtjEM2TeiDgzCGhiBpf7gNLHTsdGzGelfnMaXtVooCY3AIZqUC2TR5ERPRdDgBwOoePt+z4CGE812E9ATzc5Gurk2XHID3AHgLgJsBfBPA/QzADCDUjy+SaaKwbBm07PyQtJtThMl2X5zYljXl+pAggFWtwmu2YFTKMIaGIcoy3EYD1q6daZvbSW4be9XQkyQIOh0Etg13fBy5BQuhDwwgiSM4Y+Owa9WuVod6GzzSVau0zmMEaqEwqa1jRESTUMomib26w9EB8EQ2AaX5bQuAa5HWF+Wn+e+qADgfwDsA3A3gR0hXRF4Ea0QYQKh/CKIIrTRRH9KAU6vBt6xJt5WdqA/Zs21vt0Ek9Fx0tm2DOz4OUZIR2NbuwvleFlpnRemBZaG1eRPc0TriKEJg2zPeVlcQRai5HIxKBVppAKLMtxQRTatjALyth8+3FcCTHFZCWgsyUYx+Pnp3xsxrGUa6InIG0lPZ7wDwmywU70LaoY0YQGimibIMY7gMrViCM1qHVa12daL3ROiYan3IxApFz0PHq33dYQi30ZjS39eztrqahtzICIzh8tw6uJGI+pUB4KMARnr4nM+AHbBotwaAfwdwJIBD9+LfayItgD8CwIUAngPwewD3ZWFkI9JubVwdYQChGQ0iWX2IWijArtXgNhpd14ckSfLStqyJFZJJzuj37jffg+Ax1ToPfWAAZqUCxcyxrS4R7S2nADinh88XIT0F2+bQ0h6eRHpux/8FsGAG/v480pW+YwB8AkANwDoADyM9r+Q5pAdnjjKQMIDQTBAEKLkCioYJfWgIdjWrD4mirtv2iqL4BwcZzo1h2r3dquvvKUkgSFmdx8gI1HwBgiiBBwcT0V6yAMBl6O3qxzYAt3Fo6WVipFuxlgH4b+hdu+du5LLHPki3aU0cmrkBwNMAHgHwFNJVvBa4ZYsBhPaW9LwJrViCYubgjo/BrlbTQvBJz7H/+PyQKIqmtE2pX4LHVLdbKbkczJER6INDe9R5MHwQ0V6hAPgMen9S9V1I7ywTvZyPtFXuIgCfxfS15p0sFcDK7HEa0u5tTQAvAHg8ezyNdMtWDUDIl5IBhKaZKMtZF6YinHoNzugYIn/y9SF7nh8ylba9/RA+plznoWowhoemfhI8EVGXH+1Iu15d0uNJYAfAr8BzGOjVtQD8UxaALwLQjz8EjeyxEGl76gBAFekqycQKyUQNySi43ZABhKbxRTUMFJYsTdv2VmvwGuNpd6pJ1irsWR8iyzKiKOr7bVk9qfNIEoiyDG1gEOZIBWouD4giDxIkoplwOoD/hfROdC89DuB3HF56HTUA/x3pSsIlfRpC9qQAWJI93gTg4wDaSA/bfCa77p9A2nFrJwCPLzEDCPVKkgCCADVfgGKY8AYHYddr8Futrtv2xnH80nam/v/2p9hWt1iEWa5AKxYhSNLuMSUi2nskAGcjvQO9usfP7SM99Xonh5negFEA/xNph6zLAZRn2ftoAMDR2ePD2fexMwskEysk67Pfa/HlZgChHhAkCfrgINRCYcr1IbNhC9aU6jxM8xXqPIiI9ro8gA8B+Dukxbe99jiAX4CFbPTGjQH4F6QHBf5XAPvN4nlvOXscAuA8pCskm7IQ8jiARwE8C2AH0ta/PKSTAYS6tbs+pACnVoczNorIZ7MIAJBUFcbQMIxKGbJucECIaCYdjPQu84eRnnreax6Ab2YTSaLJcAHcmE3W/xbAyUi3PM12hSyMHALgXUjrRGrYvWXrkeyfN2eBhBhAaNIvuG4gv3SiPqQKr9lAHM3PcC9KErTSAMyRESj5/KzZYkZEc+/jCOlKx7kALshCiDhNf9edAL4Lrn5Qd2IAtyPtOvUZpIcGLppj78V89liJ9NydDtKi9ueRHo74+yyQ7AK7bDGA0BsnCALUQhGKacJtNGBXd8G3rPlT5yAIUHM5mCMLoA8MQJBk/iwmopmgAtgfwNuRbgU5fJp/Lo8CuAKzs/YjAbfC9JOtSOtC7gbwOQCnIu1GNRfls/fp/gDeiXTL1jMA7s0C/cPZe4rXJwMIvZHPckGSYAwPQ83n4YzW4YyOInTduX3B6zqM4WEYw2VImrbHzzUior0WOpYAOCoLHicDWI7p38oSA7gJwK2zdNwkAIchrUUQ5+m1I2B3rUI/8AHcgrRm4lwAFwM4Yo7PLUWkWyPfnD0+hbTF728A3Iy0oH2MH3MMIPRGPtU1DflFi6GVBtLzQ8bGEYfB3PrEkBUYQ4MwyhUopjnplsRERFMIHHkAi5F24TkxCx9rsHdPmP49gP/A7N3DrgL4LwD+bB5fSwKA/wvgH7JA2S+qAL6MtK3zB5Cu5h2M/jm8cDoNZo+jAHwSwINIGzzckoVFroowgNBrf6wJUHI5yIYBbSBt2+s1m0hmeX2IIEnQSiWY5QrUQgGCKPK1Jprd+nUrjgBAQ9rycxjACNJOQYdmk7E12e/PxDaVbUi3yzw/y197k5c/tD7+2l4A8HmkNUbnZmHkiHn0uo0grRk5HcBzAH4A4EdIO2oxiDCA0Gv+BBVFaKUSlHwe3tgoOjt2IPRm5zk9sqYhv2gRtKFhiBPneRDRbFcC8G6kd13jV3gkb+D3X/7PL38Af7g3U8x+Xip7PPLZ11JCege0DGAZ0hOZB7LHUB/8nLUAfAHpFhGaGwG8n8VItyT9HwDfB/BWAO9Bekr5YsyP7XMa0nquQwB8FMBPAHwDad0IgwgDCL0WUZJgVkaAMERj69ZZ+T3kKxWYlRFWeBDNLYuzyc0rhYU3+nt4jT/3Sn9eyiZOEw8h+/kpZf888Xv9xgdwNYBrAAS8dGgv24L0wMufZBPyMwCckv3zYJ++Z3pJQlq4/lfZTZNvAPg2gA28NBhA6DUkACDJab3EbOuQJQiAJDN8EM09AubG2QPTLQBwA9KT1JscDppBDoD7kdYhXQPgIKRds04AsBrpquFcno8KAA4A8N+yIHIV0q1Z8/p9yQBCrxNCEn7tRESzL3zcmE14Rjkc1CdipFsnq0jPEhlGWht1ONKOUkcCWIp0e+NcvMmgAHhTFkZOQdoU4jH0V0MBBhDql0k8v3YiolmkjXTb1ecB1Dkc1MdGAdyXPb62RyA5EmnHuP0BrEJaZzWXtmsVAXwcwLFZCPkm0sMOGUCIJgj82omIZoudAP4tCyAdDgfNIg7Sww23Im3nayDdmrUK6QrJ0UjPgVmItH5kLnSWOTC7UXAA0rq2zQwgRBOT+Fl8XobAsz6IaH5IkJ4/8E8Afom0+JxotgeSjdnjt0g7Sy1AuipyJNL2vgcDWIn0PJ3Z2l2rCOBypCs/fw/gEQYQIgCCKEHA7NvOJGRfOxHRHNdE2lnn/2L2n/NB9Go8pCsEm5G2lM4jbX29Ogskx2aT+KVI21/Ptrn4OwBUAPwlgDsZQGiepw8BkqZBkCQkYTi7vnRJgqRps7ODFxHRG5uQ3Y/0BOqfIa39IJovOtnjxSyQ6EhbdK9GujpyBNKtW4uzsDIb7kgeC+BLWQj5DeZ4KSsDCL26JIGkaZB1A36nhdlTVZFA1o00gDB8ENHcEgF4EmmL3e8B2M4hIYKL9HyNDQBuQbotq4K0vuKo7LEa6ZatQh9/H4ciPTj0cgC3MoDQvCXIMhTThN+ZTTfXBCimCUHm5U1Ec0YnCx4/AvBTAGvBZn9Er8bKHi8CuBnpKshC7F4hORppDckIgAH0Vw3J/gD+GcAlAB5iAKH5GUAEAUo+B6EuIolnR6tqQRTTr5lF6EQ0u8VIW5XekwWPW8EVj3n/Y5lD0HWAfyF7/Aq7t2wdiN1F7YcAWI60A9dMOxrAvwD4NID1DCA0L6n5AmRNR+DYs+Oi1nSo+QJfOCKarXYCeAZpO9LbATwNoMFhIeqZPbds/QJpN6oFSFdFjkN6YOD+ABZh5lZHTkZaD/JXmINttRlA6HVJqgq1UJg1AUQtFCCpKl84IpotLKSnQz+JtJ3u3dk/8xTz3UIA38/C2HxdBRCya4Nb73qvlT3WAfgx0k5aBwB4C4CTkBaIV/ZyGBEBfATAA0gPapxTrzsDCL2BjzwB2uAAnLFRxH3eDUuUZWiDA2n3KyKi/hMj7Vi1HcAWAI9noePJ7Pc62Z+hPxRkAeSHHAoGkL1gDMC92eNapNuzzgZwJtJC8b21TasI4M+R1oI8xQBC846ay0MrleCM9vcNOa1UgprL8wUjmrscpHuiZQAmAPVlDwUzf4c8zr5OO3u0kJ7w/CzSO6zrAGwDUMsmOpxQvj6Bk2+aIU2kdVj3ZWHkVADnAXgz0gL26XYQgIsA/E32ucIAQvPok1+SkBtZAL/TQeR5ffk1SpqG3MgCCBIPICSawzYD+DiAcQAlpC01i9ljAMDgHr9XyEKKifSOpYm0+NTIftWywCJmDwG7t1hMnMGaZIFi4tcY6XYgG+lKRhu7zySwkG6b2pEFjF0A6tljHOnZHRFfwimHEKKZurGwGWkL7J8AOA3AhUhrNfTpnN4A+ADSFcC7GUBo3lFyOZiVCjrbt/ddRyxBFGFWKlByOb5QRHN/EjAGYNPrTFTlLFzIr/BQ9/hvysv+Xd4jiEyEjRDpFqCJf46yMOEC8LPHxH9nyCCa+8azQHAXgHcDuAzAYZi+GpHFAD4F4JHs5gcDCM0jggCzMoLQceGM1vvqS9MHh2BWRlj7QTRPPo1e578nWSAIOFRENI12Id2WdS+A/4S0aHw67oQKSOtPjsj+rllP5LVDk7pgZBn5xYuhFYt98zVpxSLyixdD5MGDREREtPc9DeAvAPwdpu+snsUA3oE5snjAAEKTJus6CsuWQyvM/FkbWqGAwrLlkHWdLwwRERHNlDaAKwH8Z6Tni/SakAWQJQwgNG8pponC8hUzuhKiFYsoLF8BxTT5ghAREdFMCwD8AOnhgZun4fn3B3ACAwjN+xBSXL4c+sDg3q29EAToA4MoLl/O8EFERET9JEbaJeufkLbw7SUjCyCz/rRlBhCaEtkwUVyxArmRBRD3QvtbMWsHXFyxArLB8EFERER9JwJwI9ITzHvZFU8AcBSAhQwgNO9JqorC0qUorVwJrViCIPT+shIEEVqxhNLKlSgsXQpJVTnwRERE1K8sAF8C8GiPn3cN0q1YDCBEgihCHxzCwKpVPd8aNbHVa2DVKuiDQxBEXrZERETU914AcFUWRnqlBOBwzPKDOTmTo95eUIoCc2QExaXLICrK1J9PVlBYshTmyIKePB8RERHRXpIA+AWAB3r4nAKAg5CekM4AQrT7rSFAVNW0JiRJpvC2TSDKEiRNneU5n4iIiOapXQC+B8Dv4XPuB6A4mweFAYRm7uITRYhvaDsV0wcRERHNWreht2eDLMEsL0RnAKEZIwgCBIHhgoiIiOa0TQDu6eHzFQEsZQAhIiIiIqJX4gK4H4DTo+czAJQZQIiIiIiI6NU8DmCsR8+lMoAQEREREdFr2QJgR4+eSwawYDbP4xlAiIiIiIim1ziAzT16LgHAUBZEGECIiIiIiOiPhAC29/D5NHAFhIiIiIiIXkUMYGcPn08HV0CIiIiIiOhVJACaPXw+kwGEiIiIiIheSy9PQ9cBSAwgRERERET0aiKkKyH99lwMIEREREREc5CMtINVL1gAAgYQIiIiIiJ6NWoPn8tC2lmLAYSIiIiIiF6R3sPn8pFuw2IAISIiIiKiPyIAKPTw+VywBoSIiIiIiF6FBGBhD5/PRnq2CAMIERERERH9ERnASI+eKwRQBbdgERERERHRq8gBKPfouTwAu2bzYDCAEBERERFNrxH0bguWzQBCRERERESvZV8AQwwgDCBERERERHvDGvSuC1YDwDgDCBERERERvRITwGFIC9F7YQsDCBERERERvZrFAI7t4fM9ifQcEAYQIiIiIiL6I4cDWNmj5/IAPIFZfAYIAwgRERER0fRRAJwJwOjR81UBrJvtg8IAQkREREQ0PQ4GcGoPn28jgG0MIERERERE9HISgHcA2KdHz5cAeBzAKAMIERERERG93L4AzkPvul+1AfwOQMAAQkREREREe1IBfBLpFqxeWQfgwbkwOAwgRERERAQAOoAFnB/2xJsBfAS9W/1IANyOtAidAYSIiIiI5oQ3AfgqgP8HwIE9nDzPN0sB/DWA5T18zgaA2zAHtl+BFxYRERERIS2YPgPA27NfzwfwUwA/RFr47HGI3hATwJ8DOK3Hz/sQgAfmyiAxgBARERHRCIDT95gfHgjgAAAfAnALgO8DeARzoAPTNNIAXAbgQqTnf/SKA+BbAOoMIFOUxAkgCLxUieYrQeBnABFR/zgWwEEv/6QGsALApwF8AOkd+F8C+C2AFzBHtgP1iArgEgB/C6DY4+d+EMCv59JgzVgACa0OgnYbSj7PSQjRPJSEIfxWC5Hn8TOAiGjmJ89nASi8xp8ZQro961QALyKtR/g50lWRHfN8/AYBXArgL7J/7iUHwLcB7GQA6QHfttHYuBH60BCMchmyrvPtTzQvkkeCoN2GXavBazURhSHHhIhoZq0AcCLSFY/XowHYP3t8GMBjAO7MHo8DGAMQzaOx2w9pwflHABjT8PwPIK3FiRlAeiT0XHR2bofXaiK3cCH0gUEIIhtzEc1VcRjCqe6CXash9H0OCBFRfzgewOou/r8SgJOy8PJZAM8AuCsLI08gvWsfz9ExywE4B8B/ysZvOiawdQD/AWD7XBu8mS9CT4DAstDatAlBx0JuwQJImsaPAqI5Jup00N65A26jgSRJOCBERP1BB3B29mu3RKRbtE7IHp9GemjeQwB+j3RlZDuAccz+1RETwJEAPgXg3Oz7ng4x0sLzW+biRdc3XbDiMIS1aydCx0Fx+TLIhsmPBKI5wm800N66Bb7jcDCIiPrLGqR38HtpOHscD8AHsAvAc0jrRR4B8BSArQBsALNlH24RwDFIu4K9A8CSaf77HgdwJdIaEAaQ6ea1mmhuilFcvgKKyRBCNNt54+NobdmM0GMLeSKiPiMAOHmaJ9MqgGXZ4wwAbQA1AJsArEW6bev5LJBUkR641y/dtQYArES6xeysLICM7IW/twrgX7LxmZP68hwQv91Ge/NmFFesgGwY/HggmqWCZhPtrVsQui47XRER9Z/BLBTszb3vheyxCsApAJIslOzMQshGAJuRbtnaCmAb0rNHrCyYhNmvvdzLKyLdgmYCKCM9A+UopFutDs7Ck7SXxscB8H8A/LjH3yMDyBvhtVtob92C0op9IKoqPyKIZpnYcdDethUBwwcRUb86EMCbZvhrEJBubyoi3Q4GpPUPfvawkK4I7ES6cjKOtNPWONLVkkYWYPwsnLzSA0gPBpSzX3WkReSDSGs4FgPYF8DyLGwMZ/99b//wCgB8BcDVmOMnz/f1Sehuswm5VkV+8RIInMAQzRpJGKKzYwc8y+JgEBH1JwHp6ke5D7+2iRUJPQsmiwAc/gp/zgfgZpP1EGmB+8Rjz38XkK5gSNncV82e28h+7YcWrDHSdrv/mIWqOa2vAwiSBE6tBq1QhFoqAeycQzQruGNjsMfHOBBERP1rBOmhgrP5/AM1e8x2MYCfID1PZPt8uPj6/qKLggBWdRfiIOBHBdEsEDkOrFoVSRxzMIiI+tcxAA7lMMy4AOlJ538O4IX58k3PitTrtVrwGuO8RIn6XZLAGRtDYNscCyKi/rYL6SnbbFE4c3wAXwXwlwBenE/f+KwIIEkUwRkd5SoIUZ+LwxBeu8XtkkRE/e9hABcA+Kvsn0MOyV5VBfDPAP4WaYH9vDJr9v0FlsW7qkT9/j61bYS2za5XRET9L8kmvl9CerjefwXwGLgisjfG/VEAlwP4J6QthuedWRNA4iiC12zwzipR336kJvCaDcRRxLEgIppdE+IXAHwewAeQFkLfizl6AvcMcwDchHTl6XtIO3jNS/LseXsk8NsdRL4PSdN4CRP1mcj34bc76U0CroAQEc3GILIewH9kk+OTAbwXwJuRnpNB3YsBPAHgWgDfxTxd9ZidAUQQEPkeIs+FpOtcCSHqt/en5yLyPYYPIqLZH0S2Afgm0nMpjgRwZvY4AOkp5vTGbQfwLQDXA3iOwzHbAgjSYvTQ86EyfBD12ZszQej5SLj9iohoLmkDuBPAPQCuQroaclr26xqkB/nRK9sJ4LdITza/G2nHK5qVASRJEHket3gQ9WEAiTwPCW8OEBHNRRHSVZHvI10VWQbgaAAnATgewD4AhjhMiAFsAfArpLUeD2UhjmZzAEGSIA4DJEkCgQGEqK9uDsRhwJsDRERzn4+0VmQ9gB8AWAjgCKSrIscAOATpKevKPBoTG8AzAH4D4EdIu4nx7Ii9GUACq4kkrkzfDIQ3WIn6NIVM41PHsRBYzfkykr3qTihkj34h9Nn40N573cUeve68u9F/JlZGtiG96z+IdHXkKADHZmFkOYAFAOZaByEbwAakHcNuQbrasR08T2VmAsjzP/4p9n/f++2BffeDIPLnBBFNOXygtXmTtfYnP5svMW4bgKenGOkEpHcn++UOXABgXfYzZ6pRdSN4Z3E26SC9Mzw4xdfeA9DkcPa1GGl3p1GkKwA3ACgj3Z51AICDs19XI10hMQHosyhYugDGs8+yRwH8PgsdGxg6+iCAjD3/XGLt3Pn5wdVrcpKqnRwFvsyOVUQ0+Sm0AElRw8j3breq1c+PPvfsfPggCQF8AcB1PZr098uEbReAz/ToZ07Iieis8iDSVq5TvSOZAGhxOGddIKlmj99n738jC6P7ZI9VAFYCWJqFlTKAYvbnpBn82v3setuBtJh8HYBHADyO9CZIC7wR0l8BBABERblXyRc+LinyR0RfvjjyvDVxFAm9CSIMM0T9qUfvTUGAKEmJpGlrJVW9VlTVb4myvGMeDWQne8y1icgY3yPzkg+gzmGg7OZBO3tsRtpdC0i3ZhUBlLJHBcCS7Ndy9utI9t/M7KFlc1g5Cyp7PoSXPeLsEb3s1wDpqkYnu6kxlt0s2YJ0VePFLDyNZf+dqxz9HkAe+/LVWH7qGTv+9Nx3/dsVP7/5Zl8QPiNG0Ydi369M6ZRkQUDoeYjDMD2MkCsrRDNPEBCHIUJv6meAiJIEUVVrgiR9RzXMaz77zrOf/vfv/hCPXXMVx5mIaG7yANSyxx/9WNgjWBh7BBAz+3c9e2jZQ93j/xGzR5QF4SD7deLRQbqSMfFwsz8bgXe7p3/qMJ1Pft6vfo04jJDEsY44PjH0vUviMDwzDoJ8EsddznUEaAMDyC1YCCWfZzesPp2QhraN8RfWIXScV52USlK6uhq9WihNEsiGgcH9VkM2TQbOPpQkCYJOB9aunfAaja7b8AqiCFFROqIs/1pWtashincJouiKsoSb3n4mB5qIiIgBZHLe+8OfIvRclFatKFhbtp8bBcGlcRgem4Sh3O2ERVJVGEPDMMplyAbPwWEAob0tdBw49TqcsVFEvt/lpSJAkOVQlOUHJUW5Krds8Y+bGza1ZU3Hj973bg4yERERA8jUfOz+B/DC3Q9i4YpFSwHhE0kYfioKwlVxFHY9uVRME0a5AmNoEKKi8hVlAKFpFgc+nLFxOPUaAtvu+hoRJRmSIm8QZPkrQPK1nZt2bN3vhGPxjeOP4yATERHNYXu1T+43jj8Oyw9YiSSOtx71gff+k5LPn6fm89fKml4XpO6aHQS2jfbWLWhs2AB3bAzJVGpMiOhVJVEEd2wMjQ0b0N66pevwIUgSZE2vq/n8tUo+f95RH3jvPyVxvHX5ASsZPoiIiOaBGSuguPDxZ7Hz0YeQW7GPFoyPn5aEwZ9Gvn9yHIZaV/UhSQJRlqGVSjArI1ALBUAUedd8Rq4qroDMpdcScQy/3YZdq8JrNhGHYVfF5oIoQpRlT1LV2wVZ+YIyOPhba9OL3sIjj8H1hx/IsSYiImIAmX6XbNyE2vPr0Pj9Ixg67MByGIbnxlF8Sex7R0Vh2HXb3rQ+ZAhGucL6EAYQmoK0zqMGZ2ys6zoPCAIkWU5EVXtElMSrZVn+8dgTz9YH3nQUKvuvxtUrV3CgiYiIGED2roubDdRuvQ2RbcGoLNw3tK2L4iA4P/S8JXHYfdvl3fUhQxAVha82Awi9QXEQwBkbm1qdBwBRliFr2jZRUW6Uzdx1Tm3nesnMoXL6Kbi2NMCBJiIiYgCZeR/81W+gaJoSWNZxoe9/OvK990S+X+y2tkMQRaj5PMyRBdBKJQiSxIksAwi9yuuWRBG8ZhN2dRf8Tgddt8uWJEiq2pJU7Seyqn5ZyeUeCDwv+N7bz+A4ExERMYD0lyRJcN4vbkYchsgvWpzv7Np5VuQ6l8Vh+JbID/RuJ0SiLEMfHIRZrkDJ5aZ8YBoxgMwpSYLAsmDXa3DHx9HtyqMgipBUxRVl+V5JN67ML1h4S2fH9o4oy7jpnLN5bg8RERFNz0noU5u77p6gfOzOezvO2PgP8gsrd8VB9KHQdS+KPO+QKAgmXR8ShyHsWg1eqwVzuAyjPAxJ03kF0LwXeS6c+ijs0Toiz+s6dEqKkkia9pSs69eJivSdzs5a1RgYxA/OfVd/3u0gIiKiGSH28xf3jbe9BflFCwCgevY73/5FtVj6gFoofF41zS2i3F12ijwP7R3bMb5+PexaFXEY8CqgeSkOA9i1KsbXr0d7x/auw4coy1BNc4taKHxeLZY+cPY73/5FANX8ogX4xtvewoEmIiKiPzBrbkpe8MCjGN+0Afsd8hZp0/rHjgt997Ox778r8oNCV/UhSQJBkqAVijBHRqAWi6wP6dlVxS1Y/fzaJFEEv9WCXa3Ca7fSs3O6aasrSZBUpS2q6s9kVb9ixb5HPPDCU/dGgytW4YbjjuRYExER0SuSZ8sXOjGhufS+Z6PQbt5rLlzypDs29iNRUS+JPO+k2PflZDITVEFAEsdwmw34VietD6lUoJisD6E5KkkQWB3YtZfVeUzyehcEAaKqhpKm3SFK4tX60NAt9s5tbbvZwE/Oez/HmYiIiF57LjEbv+hPPbkNrRcfR+R7UEulhaFlfyTy/U9HrrtmKueHyJoGo1yGMVyGpGm8Orq+qrgC0m8iz4MzWodTryOcSp2HLCeSrq+VVPXLcs78lt9s7pRUDcV9DsdXDl3CgSYiIqK5GUD2dN7Nv8Z7zzoDP/rlrw8Pff9Tked+KPL9ke66+CSAIELN5ZAbWQBtYACCLHPiywAya1+HJAzhNRqwqrvgWxaQxF297UVZhqSqVUnTvyOr6lfe+44zH//RLb/BTWefyXEmIiKi+RVAPpIkCG/+NRAl0Iolzbftt/hW+/LI886IfL/QddteSYI2MABzZARKLs/2oQwgs0oysd2qWoXXaCCewjk6kqq2JU37jZorfEk1zXu9VtODJEA++0x8i+8LIiIimiR5tn8De06APvTr33lWbddt5oLKI6Isv1tUlMsizzs6DgIlmWzb3iiCMzoKv9OBMTQEY7gM2TB4xVDfCx0n3W41NtZ1ZytBECAqSiBp2sOSql4pGdpPrV27msKChbjpnWdzkImIiKhrc/L25Qd/dQvu/9KNOOHPLlziNZvnx1F0Yeh5+8VB9y13ZcOAWa5AHxqCpKq8cl579soVkBkQ+T7csTHY9Vo67l0SFQWypr0gStL1Wql0493/5/ptx19+Pr739rM4yERERMQA8mo+duedcBttHPeudwgP3nLrkaHrXRp57nsjzxvu/pRnAUqugNxIBVqpBEGSeQUxgMy4JArhNZuwqjUEVhtJ3N04ibIMSdNGJU3/kaxrVx171umPPvCzXyb6QAHfeNvbONBERETEAPJGXPjEkxhfuwHFNat0a/OWU6MgvCx03dMjz9O6rQ8RJAl6qQSzMgK1UGDbXgaQGUoeCfx2G3atCrfZRDKVOg9N82Rdv1VS5Ctzy5f9rrV2gzu4ZhWuP+xQjjMRERH1lDjXv8HrDzsUhX2WIokit1Wr/1Irli5QzdznFNN8RFLVuJvwkEQRnLExNDZuQHvrVoSuwyuJ9qrQddDeuhWNjRvgjI11Fz4EAZKqxoppPqKauc9pxdIFrVr9l0kUuYV9ljJ8EBER0bSYV7fu/zFJ8NjNt2LLls1YsmjhvkiET4ae94nQcZbGYff1IUouB7NSgT44BFHmtiyugEyfOAzhjo/BrtUQWFb3dx5kBbJhbJU17WsQkq9u27Fz/bJly3HE2afjb7miR0RERAwgvVVPEnzmZ7/AwJJlstNpH+uNj18Wuu67Is8rTaVdqVYsptuyikUIojiPryoGkF5L4hh+qwW7VoXXamEq7aUlTWvKuv4zbXDwSiNfeLCxbUt4zbvOQZnBg4iIiBhApteHb70NURBAM/W8Zzlnh653aeA6b4l9X+96gqco0AcGYVYqUExzftaHMID0MHkkCGwbdq0GtzGObju5CaIIUVVdRTfulXXtKi1n3OzZbkdSFHz79FP4SUhEREQMIHvTR279HcY3voDhAw8ru43xD0We95nQcQ6OgkDodtIraRrMchnGcBmSpjGAMIBMWuR5cEbrsOv1rs/zgCBAUpRENoynJU27Rh8Y/M7os0/UB1fuh2+dfirf/ERERLTXiRwC4Funn4qBfQ9AAtQvO+fsK5SC+UEln/9XJZfbLspK15PHzvbtaKx/AXathm5b/9L8E4ch7FoNjfUvoLN9e9fhQ5QVKLncdiWf/1elYH7wsnPOviIB6gP7HsDwQURERDOGKyAv88nnX0Br7ToMHXmw3Hxq7Vsj3/9caNtnha6T77pt70R9yMgI1MI8qA/hCkhXkjiG327Brk6tzkMQRci60ZFN8xZJVb9YOmTNPWOPPh0W16zGV/ffj29yIiIimlFs2fQyExO0C559Nmxv335H5aADHnMbzXNES/5s5HnHRZ4nJZOcCCdxDLfRgG9ZMAaHYEzUhxBlAtuGU6vBGR/rvs5DECBpWiRp2gNKLneFPlD6Re2Z55rmiiX4wbvezkEmIiKivsAVkNfwue27UHv2GWx79gUsXr1yWeR7Hwld74LQ9Q5IJ4nd3ZGXDQPGcBnG8DAkVZ2DVxVXQN6oyPfhjI7CGa2nY9Xl21hUFMi69pysazdIqvat7es2blly4H6oHHgQvrh4Ad/MRERExAAym/zlxvXY8PRarDruWGHbk88cHFrWZYFjnxe67nBXtR1JAogi1HweuZERaKUBCJLcdaBhAJl9b7skCuE1G7CqVfidDhDHXXVME2UZsq6PKoZ5k5zLXbnk0IOe3vDAg8mqg9fgX1fuyzcvERERMYDMVl9PEvz8V7+GpBvIDRSMTn381MC1Lwls59TIdc2u2/bKMrRSCUa5AjWfnxv1IQwgr5494xh+pwOnXoPXbHbdnEAQRUi6bium8TtFN6/Olwd/ZzXaTuQ6eOfbz8THeaYHERERMYDMHR+/+x60duxEfsniwcCy3xu0rUtDxz4i8n056XKSLCoKjKEhmJURyIbBADIHA0joOLBrVThjU6zzUNVQNszHlELuKiVn/qizbft4cdFCfP2Et/LNSURERAwgc9lH774H3zzhrfjwrXeuDF3r44HjXBC67j7dTi6BtD7ErFRgDA1BVGZpfQgDyB+IAx/O2BjsWm0KdR7I6jz0FxXDuEHWc1//9ulv2zhxDRIRERExgMwTFz23Fq2NmzBy7OFS9aEnjgwd59NR4L8/cpyh+NUm1q/3omT1IWZlBFqpBCGbqDOAzK4AkkQRvGYTdi2t8+h6m54kQTKMMUlRfyAbxpdHjjns0eqDj0fFlStw3QFr+CYkIiKiWYVteKdoYgJ4waOPRn6z8dDA6n2fdEfHf+5r2p+Gtv22yPOUyU48kziG12wisCzog4MwR0agmDlAEDFnCtXncqZPYgS2BbtahTs+ntZ5dFGTIYgiJE0LZNO8UzXNL+jDg7c01q33Olu24aa3n8GhJiIiotk6W6JeuXjtRvjNOkaf3YDCPksXhh3rA5HnXhTY9mGR7wvd3sGXNA3G8DCM4TJkXZ8FV9X8XQEJXRfOaB3O6GjXJ5gjrfNIFNN8QtL06+R87vvtF7fuHD5wFdRSGdeuWck3GxERETGA0G4XPvEEWtt2wtqxHQP7rt4/tK0L/Hb7/NDzlnRdHyIIUEwTZrkCfXAQoqIwgPSROAjgjo/DrtcQ2HbXX6uoKJA1bZtaKNwom7kbGuvXPZ9btBjFJQtx/WGH8c1FREREDCD02j586+0oLl8sN17ccnzkepcFtv2O0HNLSTf1IUkCQZKgFoswyxVoxWJ/1ofMowCSRBG8Vgt2vQa/1UISRd1tt5IkyJreVEzzl5KuXTmwz7L7W5u3h98+/WS+iYiIiGhOYQ3INBs47US0774/jDzvbq008ISoa6dLlv2noeu8OfI8dVL1IYKQ1oc0Ggg6HWilEszKCNR8vqtJL00leSTwOx3Yteofnucxydchq/PwZd24T86ZX1A041av1WhZu2oYOO1EjjMRERHNOZy17kUf/t2dqD/2KBYe96bFfsc6P7DtTwWWvSYK/K7v7kuqCqNchlkuQ9L6pD5kjq+ARJ4Lu16HU68j8v2ux0hSVCg5c61iml9R87kbdz7w++3lI47Et099G98sRERExABCvXH+Q48Bro38fiuk1vMbD/I7nYtDxzkvsO0F3Z6K3Xf1IXM0gPSszkOWoZjmLtkwblLz+WuL+698pvPCpgi6iRuPOYJvEiIiImIAod77+IMPwdlZxaIjDldra9e9LbCsSwPbOTv0XHMq9SFasQhzZAHUQgGCKDKA9EASx/DbbdjVXfCmXudhK6Zxs5LLXVVZs/rOHY897hsLR/D1Y4/hm4KIiIjmBdaAzJCJCeela1/wXdu5tVBZ8JDXap4bet5lgdU5OnJdMZnMhDurD3EbDfgT54eUK1ByOQ72FASWBbteS8/zmOhgNtk6D0GApOuxkss/LGvalVqx9ON2vdYIHAffe9c7OMhEREQ0r4gcgpl11Zr9MLSgDN/qNLbefPMNZqX8YbNS+QetVNooqWpXd9rjIIBdraKxYT0627d3fx7FPBZ5Hjrbt6OxYT3sahVdtU9Oz/OAViptNCuVfzAr5Q9vvfnmG3yr0xhaUMZVa/bjQBMREdG8wy1YfeRzHRfV++7HvqefJL54+91HBY79mcCy3hc6zlC39SGCIEDJ5WBWRqANDEBU5Ok/TH22bsESgDgI4TUasGtVBJaFZAp1HrJhjCm53A8Vw7xmn5NPeGT9rXfEI28+Hl/M67zYiYiIiAGE+sPfWR3sXL8dzuguSKqSizz/JN/qfC6wrLeFrmtOqm3vni/0RH1IZWT660NmYQB5qc6jVt1d59HNty6KkHXdVnK5O9Vc/ouSpt4R+YFlDC/Awn0X43/l8rzIiYiIiAGE+tNHbrsTVnUnBlauLrujo+8LPfeSwLYODz1P7Lptr6Kk9SGVkXRSzwCC0LZh16pwx8cRTeGkelnTYsXMPS5r+tX68PAPGxvX1XMjC/GtU9hWl4iIiIgBZBY5//6HccFxR+Er9z6wX9DpXBRa9kd9q7M07nayDEDWdZiVCoyhYYiqOi8DSOz7cMZGYddqCF236+cRFQVqLr9VzpnfVPL56z71luNeuOGBR3Dj8Ufz4iUiIiJ6+RyQQ9D/nrjuy4hOPRuR644NH3H0HUG7eb8kK6ogCiuSKNaTZPLbsuIwhN9uI7BtCJIESVV7ty1LENIzM8bG0hPCXyWAiNnf91p1FqKipCGph2ebJFEEr9lEe9tWOPU6uq2vESUZSj7X1Iql76vFwt8MH3bkjfbWLfXHt+7EN054Ey9cIiIioleaKnIIZpdPPbsOrQ3rkV+6T86t7Xh7YFmXho5zYui6Srf1IaIsQysNwBwZgZrLddV56+UBpC9XQJIEvmXBrlbhNRtdB4+sziOQDeMuJZe7Sq8s+lVn64tWcdW++MqBq3mREhEREb3W3JNDMLt85cDVMIfLiIPAaq7d8H29PPRRozz8V1qx9KSkaUlXbXvDEM5oHY0N69Hetg2h68y5cQtdB+1t29DYsB7OaJerHoIASdMSrVh60igP/5VeHvpoc+2G78dBYJnDZYYPIiIiojcypeIQzF6XbN2C8aefw3fPOgMfvu3uA0LHujh0nI8Etr1wKvUhipmDWSlDHxzqbutTH62AxEEAd3wMdq2OwLa6T+qKAsU0d8qG8S3ZyF377VNOeO5PbvkNBg8+AFcvXcaLkYiIiIgBZP64aLyGxoNPwSwPqJHlnBB0Op/12+0zQ8fJx1NoJ6vmCzBHRqAVixCkSZQL9UEASaIIXqsFu1qF32mj6+1pkgTZMDpqofBrJZ+/QsoZd9v1hj9w7CG4brDCi4+IiIhokmQOwex33WAFVyQJ7r7jLj+0vN/llix8VJSVc0LDvczvdI6NXFeebKF6EsfwWk0EtgVtYAC5ygiUXtSH/EG+mIa2ukmCwLJg1arwGlOo8xBESLoeqvn8g7KuX6lXhn9hbds1LkchTjnjZHxWYHYnIiIi6mqexSGYWy5e+zi8Rogdt/4Gi047Y3nQ6XzSb7c+4VvWysjzun5eSdNglsswhsuQNO31Zu9vaAXkjYSJyayARJ4HZ7QOu17HVL9XNZfbqBaKX1Py+a/u+O1vNi86/QxoAzKuXXM4LzIiIiIiBhB6uY/e/QBEWUJl3/3kXc89e2Ro2xf7nfZ7A8sqd7sqAEGAmsul27JKAxBl+VX/nN9sorFhffcH+02EAUXBwKp9oZZKrxpA4jCE12yk260sq+tuWaIsQ8nl6mq+8CPZNK9dcMCBj9bWvxDGYYRvnnAcLyoiIiIiBhB6PRc/+Sxa2zajsGp/w9657RS/3b4stKzTAtvWu62LECQJWrEIs1yBOlEfkk36kziG327D3rkDbrvdk8MDtWIRuYWLoBYKu88qEQQkUQS/1YJdr8FrtZBMod5FMU1XzuV+qxYKV5oLl9zW3vC8U1yyHNceeiAvIiIiIiIGEJqsC558Ho1nnsDAfquH/Vbr/V6rfVFgdY6JPE9IprBioA8NwSxXIOs6AseBU6vCnULtxWv+XQMDMCojUAwDoevCrtd2H3bYzcWftdVVcvmHtGLhOrVY/EHjhXWjAwcdhhsO3Z8XDREREREDCE3FRes2wt62Fb+48HK852tf3tezOx8PLOtjgWWtiny/6+eVNR2yriFwHEzled4ISVWzAOIh9NypPU8ut0HJ5b6hmfmv/+QTn15/zvVfgrlkKa5bvZIXCxEREREDCPXKZzdvxthzG7D4pGPFHfc/dmTkup/12633BbZd6nrlIkl62iFruv4uUZahmGZTLRR/KOn6FYuOP+LR7Xc8GA8dsApXLF/Oi4OIiIiIAYSmw59u24rRDZsQhzEKCxflO7t2nhVY1mV+p/2W0HG6rg/p2wtdFCEbhqvmC/cqudyV+QULb2nv3NERZRHDq1bgC0uW8qIgIiIiYgCh6falJMFDjzyB5voXUNhn5cKg3f5A0Olc4ludA0PPEzEdZ3Xs1StcgKxpsZrLP6vk81crhcL32y9u3Fnadz8cc9RhuJzneRARERExgNDMOP/+h/Anxx0tfO+BR/Z3m41PBrb10cCylkx3Xcd0yeo8tilm7pt6aeCrHzzuqOe/+8DDyY3HH8MXm4iIiIgBhPrBpx5+Cm5zDLmlC1WnOvZmv9O5POi0zwosqxB32eZ2bxMlCUou11byhVvUfP5LxsjQfdbWnb5eGsJXjj6ELzIRERERAwj1m088/Ag6m7eitN/qkjc29m7f6nzab7ffHDqO1K/1IVmdR6QWCvepufyXtaGhnzZfWNfML1+Krx19FF9UIiIiIgYQ6mcXPrMOkedi549vwYJ3nrrcb3fO9zvtT/nt9qrI8/rqa5U0DWqhsEHNF76iFvI37vr57zYvPPcsSJqO6w9azReTiIiIiAGEZosLnnoafn0Mp590gnD7/b8/1u/YF3mt5vsD2x6Kg2BGvzZRUaCY5phWLP1AzZvXnXz8mx689Y67E7U8hBsOOZgvHhEREREDCM1Wf76riu1PPIX8kuWGXdt1amB3LvPbnVNC2zb29rYsQRQhm6ajFvK3KWb+SrOy4HedbZudxYcdgn9fMMIXi4iIiIgBhOaCz27dgvbWXXBbTegDA5WwY73H77Qv9TvWYZHnysk0t+0VBAGSpodqPveEmi9cJedzP3EbjZpeLKGwdAGuWLqMLxIRERERAwjNRR+79wH86m//Euf883+s8lvjnwhs+wK/01k+XW17JVWFms9vVkzzBrU4+LVf/PV/2vD2f/xXfOMtx/HFICIiImIAofngggceQRwnMIbLilXbcXRgWZf77fY5gWUNxGHYk79DlGUouVxDLRR+oeRyX8pVFj3sjNYDURRww3HsbkVERETEAELzziceeAR2vYrB1fsVrJ07z/I71iV+u31i6Dhqt/UhWVtdXy0U7lLzuatzCxfeMr7uhbZZHsHXGDyIiIiIGECILnrqGWx58GEsPOyQRX6r/ZGg0/m0326vCV13Us8j6zrUQmGtks9/WS0WvrXziad2LDv2aFx3yEEcZCIiIiIGEKLdLnzsCbitNtac+BZh/QMPHe5b1gVeq/UnoWUtfL36EElVIedyO7Vi8btqLnfDvscd8/jau+5N9GIB1x9xGAeXiIiIiAGE6JVdtP5FtDdvRmmf/VRnx9YTvVbrMr/dPiuwrVwSRX94IUoSFDNnqYXCLVqxeKWxaOldzRdf8AvLl+O6fffhYBIRERExgBC9vsueex6WHcLZuQ3a4OBA7HnvCmzrMq/VOjp0HAUAZMMItGLxYcXMXSlq2s+88fGGsXAJcqaMKw/Yn4NIRERExABCNDl/FSbYft/9eOq3P8ZR7zl/P68x9ll3fPxCANAHB6/XBoaueOQnN75wyGnnYvGbj8f/lnlpEhEREc1F/z/4e5klNoJtewAAAEp0RVh0Y29tbWVudABGaWxlIHNvdXJjZTogaHR0cHM6Ly9jb21tb25zLndpa2ltZWRpYS5vcmcvd2lraS9GaWxlOklQRlNfbG9nby5wbmdvrkPNAAAAJXRFWHRkYXRlOmNyZWF0ZQAyMDE1LTExLTExVDE2OjIzOjMwKzAwOjAwqoVySQAAACV0RVh0ZGF0ZTptb2RpZnkAMjAxNS0xMS0xMVQxNjoyMzozMCswMDowMNvYyvUAAABHdEVYdHNvZnR3YXJlAEltYWdlTWFnaWNrIDYuNy43LTEwIDIwMTQtMDMtMDYgUTE2IGh0dHA6Ly93d3cuaW1hZ2VtYWdpY2sub3Jnb5+iogAAABh0RVh0VGh1bWI6OkRvY3VtZW50OjpQYWdlcwAxp/+7LwAAABh0RVh0VGh1bWI6OkltYWdlOjpoZWlnaHQANTEywNBQUQAAABh0RVh0VGh1bWI6OkltYWdlOjpXaWR0aAAxMjgwDGn8WQAAABl0RVh0VGh1bWI6Ok1pbWV0eXBlAGltYWdlL3BuZz+yVk4AAAAXdEVYdFRodW1iOjpNVGltZQAxNDQ3MjU5MDEwjC83IQAAABN0RVh0VGh1bWI6OlNpemUANTQuNEtCQnLRO+sAAAAASUVORK5CYII=;" vertex="1" parent="1">
          <mxGeometry x="570" y="530" width="125" height="50" as="geometry" />
        </mxCell>
      </root>
    </mxGraphModel>
  </diagram>
</mxfile>
